<?xml version="1.0" encoding="UTF-8" standalone="no"?>
<svg
   xmlns:dc="http://purl.org/dc/elements/1.1/"
   xmlns:cc="http://creativecommons.org/ns#"
   xmlns:rdf="http://www.w3.org/1999/02/22-rdf-syntax-ns#"
   xmlns:svg="http://www.w3.org/2000/svg"
   xmlns="http://www.w3.org/2000/svg"
   xmlns:sodipodi="http://sodipodi.sourceforge.net/DTD/sodipodi-0.dtd"
   xmlns:inkscape="http://www.inkscape.org/namespaces/inkscape"
   version="1.1"
   id="Capa_1"
   x="0px"
   y="0px"
   width="411.7px"
   height="411.699px"
   viewBox="0 0 411.7 411.699"
   style="enable-background:new 0 0 411.7 411.699;"
   xml:space="preserve"
   sodipodi:docname="airplane.svg"
   inkscape:version="1.0.2 (e86c870879, 2021-01-15)"><metadata
   id="metadata126"><rdf:RDF><cc:Work
       rdf:about=""><dc:format>image/svg+xml</dc:format><dc:type
         rdf:resource="http://purl.org/dc/dcmitype/StillImage" /></cc:Work></rdf:RDF></metadata><defs
   id="defs124" /><sodipodi:namedview
   pagecolor="#ffffff"
   bordercolor="#666666"
   borderopacity="1"
   objecttolerance="10"
   gridtolerance="10"
   guidetolerance="10"
   inkscape:pageopacity="0"
   inkscape:pageshadow="2"
   inkscape:window-width="1211"
   inkscape:window-height="895"
   id="namedview122"
   showgrid="false"
   inkscape:zoom="1.775569"
   inkscape:cx="205.28681"
   inkscape:cy="226.24949"
   inkscape:window-x="183"
   inkscape:window-y="54"
   inkscape:window-maximized="0"
   inkscape:current-layer="g89" />
<g
   id="g89">
	<path
   d="M387.262,215.66l-39.684-16.134l1.06-27.569c0.079-2.033-0.676-4.011-2.084-5.477c-1.412-1.467-3.359-2.296-5.396-2.296   h-16.815c-2.034,0-3.98,0.829-5.393,2.295c-1.411,1.466-2.164,3.443-2.088,5.477l0.591,15.321l-8.409-3.419l0.961-25.014   c0.079-2.033-0.675-4.011-2.085-5.477c-1.411-1.466-3.358-2.295-5.395-2.295h-16.813c-2.036,0-3.982,0.829-5.396,2.295   c-1.41,1.465-2.162,3.442-2.087,5.477l0.489,12.684l-31.75-12.908c0.329-21.697,0.09-43.407-0.456-65.096   c-0.291-11.605-0.826-23.212-1.536-34.794c-0.439-7.16-0.922-14.333-1.691-21.46c-0.556-5.088-1.943-10.051-4.068-14.584   c-7.285-15.529-22.732-24.587-38.222-22.348c-14.953,2.161-27.664,14.63-31.592,31.01c-0.617,2.574-0.965,5.192-1.222,7.838   c-0.414,4.262-0.749,8.533-1.05,12.808c-0.776,11.058-1.322,22.135-1.706,33.218c-0.838,24.069-1.01,48.154-0.723,72.237   c0.005,0.391,0.014,0.781,0.021,1.173l-31.744,12.906l0.487-12.684c0.078-2.033-0.675-4.011-2.087-5.477   c-1.41-1.466-3.357-2.295-5.393-2.295h-16.815c-2.035,0-3.981,0.829-5.394,2.295c-1.411,1.465-2.163,3.442-2.085,5.477   l0.961,25.013l-8.409,3.42l0.589-15.32c0.079-2.033-0.676-4.011-2.086-5.477c-1.411-1.467-3.358-2.296-5.393-2.296H70.537   c-2.033,0-3.979,0.829-5.392,2.295s-2.164,3.443-2.085,5.477l1.059,27.569L24.437,215.66c-3.529,1.435-5.839,4.864-5.839,8.676   v35.354c0,2.801,1.252,5.452,3.415,7.231c2.16,1.779,5.009,2.496,7.752,1.959l137.807-27.008   c1.093,20.79,2.428,41.567,4.182,62.301c1.16,13.708,2.446,27.397,3.931,41.061l-58.16,23.646   c-3.529,1.435-5.837,4.866-5.837,8.676v16.854c0,5.174,4.193,9.366,9.364,9.366h67.459c4.068,4.409,9.406,7.237,15.116,7.814   c7.184,0.727,14.403-2.195,19.571-7.814h67.449c5.172,0,9.365-4.192,9.365-9.366v-16.854c0-3.81-2.309-7.241-5.836-8.676   l-58.122-23.631c1.177-10.892,2.207-21.802,3.147-32.708c2.037-23.52,3.68-47.084,4.892-70.676l137.841,27.015   c0.598,0.117,1.201,0.176,1.801,0.176c2.153,0,4.262-0.743,5.952-2.135c2.162-1.779,3.414-4.432,3.414-7.231v-35.354   C393.101,220.524,390.792,217.094,387.262,215.66z"
   id="path87"
   style="fill:#ffff00" />
</g>
<g
   id="g91">
</g>
<g
   id="g93">
</g>
<g
   id="g95">
</g>
<g
   id="g97">
</g>
<g
   id="g99">
</g>
<g
   id="g101">
</g>
<g
   id="g103">
</g>
<g
   id="g105">
</g>
<g
   id="g107">
</g>
<g
   id="g109">
</g>
<g
   id="g111">
</g>
<g
   id="g113">
</g>
<g
   id="g115">
</g>
<g
   id="g117">
</g>
<g
   id="g119">
</g>
</svg>
