<?xml version="1.0" encoding="UTF-8" standalone="no"?>
<svg
   xmlns:dc="http://purl.org/dc/elements/1.1/"
   xmlns:cc="http://creativecommons.org/ns#"
   xmlns:rdf="http://www.w3.org/1999/02/22-rdf-syntax-ns#"
   xmlns:svg="http://www.w3.org/2000/svg"
   xmlns="http://www.w3.org/2000/svg"
   xmlns:sodipodi="http://sodipodi.sourceforge.net/DTD/sodipodi-0.dtd"
   xmlns:inkscape="http://www.inkscape.org/namespaces/inkscape"
   version="1.1"
   id="Capa_1"
   x="0px"
   y="0px"
   width="394.42px"
   height="394.42px"
   viewBox="0 0 394.42 394.42"
   style="enable-background:new 0 0 394.42 394.42;"
   xml:space="preserve"
   sodipodi:docname="ballon.svg"
   inkscape:version="1.0.2 (e86c870879, 2021-01-15)"><metadata
   id="metadata1084"><rdf:RDF><cc:Work
       rdf:about=""><dc:format>image/svg+xml</dc:format><dc:type
         rdf:resource="http://purl.org/dc/dcmitype/StillImage" /></cc:Work></rdf:RDF></metadata><defs
   id="defs1082" /><sodipodi:namedview
   pagecolor="#ffffff"
   bordercolor="#666666"
   borderopacity="1"
   objecttolerance="10"
   gridtolerance="10"
   guidetolerance="10"
   inkscape:pageopacity="0"
   inkscape:pageshadow="2"
   inkscape:window-width="820"
   inkscape:window-height="480"
   id="namedview1080"
   showgrid="false"
   inkscape:zoom="1.8533542"
   inkscape:cx="196.13088"
   inkscape:cy="197.21001"
   inkscape:window-x="0"
   inkscape:window-y="24"
   inkscape:window-maximized="0"
   inkscape:current-layer="Capa_1" />
<g
   id="g1047"
   style="fill:#000080">
	<g
   id="g1045"
   style="fill:#000080">
		<path
   d="M 197.209,0 C 127.862,0 71.646,56.217 71.646,125.563 c 0,1.383 0.051,2.789 0.149,4.215 5.703,-7.066 13.173,-12.586 24.168,-12.586 18.294,0 26.836,15.273 33.702,27.545 6.731,12.034 10.594,17.703 16.917,17.703 6.324,0 10.187,-5.669 16.917,-17.703 6.865,-12.271 15.408,-27.545 33.702,-27.545 18.294,0 26.837,15.273 33.703,27.545 6.73,12.034 10.596,17.703 16.919,17.703 6.323,0 10.187,-5.669 16.917,-17.703 6.865,-12.271 15.408,-27.545 33.703,-27.545 11.004,0 18.477,5.527 24.182,12.6 0.098,-1.432 0.15,-2.842 0.15,-4.229 C 322.774,56.217 266.556,0 197.209,0 Z"
   id="path1039"
   style="fill:#000080" />
		<path
   d="m 298.442,136.423 c -6.324,0 -10.188,5.669 -16.918,17.703 -6.863,12.272 -15.408,27.545 -33.701,27.545 -18.295,0 -26.838,-15.272 -33.703,-27.545 -6.73,-12.034 -10.595,-17.703 -16.918,-17.703 -6.324,0 -10.187,5.669 -16.917,17.703 -6.865,12.272 -15.407,27.545 -33.702,27.545 -18.293,0 -26.836,-15.273 -33.701,-27.545 -6.731,-12.034 -10.594,-17.703 -16.917,-17.703 -6.323,0 -10.188,5.669 -16.919,17.703 -0.397,0.711 -0.802,1.433 -1.212,2.161 15.044,42.502 54.487,95.742 83.947,142.576 h 70.86 c 29.458,-46.829 68.896,-100.063 83.944,-142.565 -0.414,-0.73 -0.82,-1.457 -1.219,-2.172 -6.734,-12.034 -10.597,-17.703 -16.924,-17.703 z"
   id="path1041"
   style="fill:#000080" />
		<path
   d="m 148.255,324.633 v 53.333 c 0,9.073 7.381,16.454 16.453,16.454 h 65.001 c 9.072,0 16.453,-7.381 16.453,-16.454 v -53.333 z"
   id="path1043"
   style="fill:#000080" />
	</g>
</g>
<g
   id="g1049">
</g>
<g
   id="g1051">
</g>
<g
   id="g1053">
</g>
<g
   id="g1055">
</g>
<g
   id="g1057">
</g>
<g
   id="g1059">
</g>
<g
   id="g1061">
</g>
<g
   id="g1063">
</g>
<g
   id="g1065">
</g>
<g
   id="g1067">
</g>
<g
   id="g1069">
</g>
<g
   id="g1071">
</g>
<g
   id="g1073">
</g>
<g
   id="g1075">
</g>
<g
   id="g1077">
</g>
</svg>
