<?xml version="1.0" encoding="UTF-8" standalone="no"?>
<svg
   xmlns:dc="http://purl.org/dc/elements/1.1/"
   xmlns:cc="http://creativecommons.org/ns#"
   xmlns:rdf="http://www.w3.org/1999/02/22-rdf-syntax-ns#"
   xmlns:svg="http://www.w3.org/2000/svg"
   xmlns="http://www.w3.org/2000/svg"
   xmlns:xlink="http://www.w3.org/1999/xlink"
   xmlns:sodipodi="http://sodipodi.sourceforge.net/DTD/sodipodi-0.dtd"
   xmlns:inkscape="http://www.inkscape.org/namespaces/inkscape"
   version="1.1"
   id="Layer_1"
   x="0px"
   y="0px"
   viewBox="0 0 512 512"
   style="enable-background:new 0 0 512 512;"
   xml:space="preserve"
   sodipodi:docname="bridge-1.svg"
   inkscape:version="1.0.2 (e86c870879, 2021-01-15)"><metadata
   id="metadata171"><rdf:RDF><cc:Work
       rdf:about=""><dc:format>image/svg+xml</dc:format><dc:type
         rdf:resource="http://purl.org/dc/dcmitype/StillImage" /></cc:Work></rdf:RDF></metadata><defs
   id="defs169"><linearGradient
     inkscape:collect="always"
     id="linearGradient1014"><stop
       style="stop-color:#000000;stop-opacity:1;"
       offset="0"
       id="stop1010" /><stop
       style="stop-color:#000000;stop-opacity:0;"
       offset="1"
       id="stop1012" /></linearGradient><linearGradient
     inkscape:collect="always"
     xlink:href="#linearGradient1014"
     id="linearGradient1016"
     x1="0"
     y1="256.0005"
     x2="512.001"
     y2="256.0005"
     gradientUnits="userSpaceOnUse" /></defs><sodipodi:namedview
   pagecolor="#ffffff"
   bordercolor="#666666"
   borderopacity="1"
   objecttolerance="10"
   gridtolerance="10"
   guidetolerance="10"
   inkscape:pageopacity="0"
   inkscape:pageshadow="2"
   inkscape:window-width="1920"
   inkscape:window-height="1053"
   id="namedview167"
   showgrid="false"
   inkscape:zoom="0.70881023"
   inkscape:cx="222.15363"
   inkscape:cy="336.59817"
   inkscape:window-x="0"
   inkscape:window-y="27"
   inkscape:window-maximized="1"
   inkscape:current-layer="Layer_1" />
<g
   id="g134"
   style="fill-opacity:1;fill:#cccccc">
	<g
   id="g132"
   style="fill-opacity:1;fill:#cccccc">
		<path
   d="M511.723,73.272c-0.064-0.469-0.149-0.875-0.277-1.323c-0.491-1.835-1.28-3.541-2.603-4.843L444.864,3.128    c-4.16-4.16-10.923-4.16-15.083,0l-63.979,63.979c-1.301,1.301-2.091,3.008-2.603,4.843c-0.128,0.448-0.213,0.853-0.277,1.323    c-0.043,0.469-0.256,0.896-0.256,1.387v74.667H149.333V74.659c0-0.491-0.213-0.917-0.277-1.387    c-0.064-0.469-0.149-0.875-0.277-1.323c-0.491-1.835-1.28-3.541-2.603-4.843L82.197,3.128c-4.16-4.16-10.923-4.16-15.083,0    L3.136,67.107c-1.301,1.301-2.091,3.008-2.581,4.821c-0.128,0.469-0.213,0.896-0.277,1.365C0.213,73.763,0,74.168,0,74.659    v426.667c0,5.888,4.779,10.667,10.667,10.667h128c5.888,0,10.667-4.779,10.667-10.667V383.992h213.333v117.333    c0,5.888,4.779,10.667,10.667,10.667h128c5.888,0,10.667-4.779,10.667-10.667V74.659C512,74.168,511.787,73.741,511.723,73.272z     M42.667,202.659c0-2.837,1.131-5.547,3.115-7.552l21.333-21.333c4.16-4.16,10.923-4.16,15.083,0l21.333,21.333    c2.005,2.005,3.136,4.715,3.136,7.552v42.667c0,5.888-4.779,10.667-10.667,10.667H53.333c-5.888,0-10.667-4.779-10.667-10.667    V202.659z M42.667,330.659c0-2.837,1.131-5.547,3.115-7.552l21.333-21.333c4.16-4.16,10.923-4.16,15.083,0l21.333,21.333    c2.005,2.005,3.136,4.715,3.136,7.552v42.667c0,5.888-4.779,10.667-10.667,10.667H53.333c-5.888,0-10.667-4.779-10.667-10.667    V330.659z M117.333,469.325H32c-5.888,0-10.667-4.779-10.667-10.667S26.112,447.992,32,447.992h85.333    c5.888,0,10.667,4.779,10.667,10.667S123.221,469.325,117.333,469.325z M362.667,298.659H149.333v-128h213.333V298.659z     M405.333,202.659c0-2.837,1.131-5.547,3.115-7.552l21.333-21.333c4.16-4.16,10.923-4.16,15.083,0l21.333,21.333    c2.005,2.005,3.136,4.715,3.136,7.552v42.667c0,5.888-4.779,10.667-10.667,10.667H416c-5.888,0-10.667-4.779-10.667-10.667    V202.659z M405.333,330.659c0-2.837,1.131-5.547,3.115-7.552l21.333-21.333c4.16-4.16,10.923-4.16,15.083,0l21.333,21.333    c2.005,2.005,3.136,4.715,3.136,7.552v42.667c0,5.888-4.779,10.667-10.667,10.667H416c-5.888,0-10.667-4.779-10.667-10.667    V330.659z M480,469.325h-85.333c-5.888,0-10.667-4.779-10.667-10.667s4.779-10.667,10.667-10.667H480    c5.888,0,10.667,4.779,10.667,10.667S485.888,469.325,480,469.325z"
   id="path130"
   style="fill-opacity:1;fill:#cccccc" />
	</g>
</g>
<g
   id="g136">
</g>
<g
   id="g138">
</g>
<g
   id="g140">
</g>
<g
   id="g142">
</g>
<g
   id="g144">
</g>
<g
   id="g146">
</g>
<g
   id="g148">
</g>
<g
   id="g150">
</g>
<g
   id="g152">
</g>
<g
   id="g154">
</g>
<g
   id="g156">
</g>
<g
   id="g158">
</g>
<g
   id="g160">
</g>
<g
   id="g162">
</g>
<g
   id="g164">
</g>
</svg>
