<?xml version="1.0" encoding="UTF-8" standalone="no"?>
<svg
   xmlns:dc="http://purl.org/dc/elements/1.1/"
   xmlns:cc="http://creativecommons.org/ns#"
   xmlns:rdf="http://www.w3.org/1999/02/22-rdf-syntax-ns#"
   xmlns:svg="http://www.w3.org/2000/svg"
   xmlns="http://www.w3.org/2000/svg"
   xmlns:sodipodi="http://sodipodi.sourceforge.net/DTD/sodipodi-0.dtd"
   xmlns:inkscape="http://www.inkscape.org/namespaces/inkscape"
   version="1.1"
   id="Capa_1"
   x="0px"
   y="0px"
   viewBox="0 0 226 226"
   style="enable-background:new 0 0 226 226;"
   xml:space="preserve"
   sodipodi:docname="bridge-2.svg"
   inkscape:version="1.0.2 (e86c870879, 2021-01-15)"><metadata
   id="metadata1156"><rdf:RDF><cc:Work
       rdf:about=""><dc:format>image/svg+xml</dc:format><dc:type
         rdf:resource="http://purl.org/dc/dcmitype/StillImage" /></cc:Work></rdf:RDF></metadata><defs
   id="defs1154" /><sodipodi:namedview
   pagecolor="#ffffff"
   bordercolor="#666666"
   borderopacity="1"
   objecttolerance="10"
   gridtolerance="10"
   guidetolerance="10"
   inkscape:pageopacity="0"
   inkscape:pageshadow="2"
   inkscape:window-width="1920"
   inkscape:window-height="1053"
   id="namedview1152"
   showgrid="false"
   inkscape:zoom="3.2345133"
   inkscape:cx="164.0661"
   inkscape:cy="120.41898"
   inkscape:window-x="0"
   inkscape:window-y="27"
   inkscape:window-maximized="1"
   inkscape:current-layer="Capa_1" />
<path
   d="M221.775,164.077h-1.437l0.18-130.962c0-1.479-0.507-2.764-0.662-3.158l-6.725-12.747c-0.892-1.651-2.426-2.61-4.104-2.61  c-1.633,0-3.111,0.948-3.952,2.51l-2.403,4.455l-4.836-15.389c-0.949-3.02-3.263-3.252-3.949-3.252c-0.684,0-2.986,0.232-3.93,3.221  l-4.828,15.354l-2.408-4.477c-0.83-1.541-2.291-2.46-3.908-2.46c-1.691,0-3.243,1.006-4.167,2.721l-6.551,12.441l-0.063,0.126  c-0.587,1.232-0.884,2.301-0.884,3.185l0.037,20.042H59.491l0.027-19.74c0-1.884-0.619-3.226-0.82-3.613l-6.566-12.458  c-0.892-1.651-2.426-2.638-4.104-2.638c-1.633,0-3.111,0.935-3.952,2.496l-2.403,4.448L36.836,6.179  c-0.949-3.02-3.263-3.254-3.949-3.254c-0.684,0-2.986,0.231-3.93,3.221l-4.828,15.354l-2.408-4.478  c-0.83-1.541-2.291-2.46-3.908-2.46c-1.691,0-3.243,1.006-4.167,2.721L7.165,29.59c-0.36,0.581-1.018,1.639-1.018,3.223  l0.245,131.264H4.891c-2.757,0-4.891,2.687-4.891,5.443v48.208c0,2.757,2.134,5.349,4.891,5.349h55.885  c2.757,0,4.225-2.592,4.225-5.349v-8.52l47.322-38.131h1.788L161,209.4v8.328c0,2.757,2.134,5.349,4.891,5.349h55.885  c2.757,0,4.225-2.592,4.225-5.349V169.52C226,166.763,224.532,164.077,221.775,164.077z M43,118.077H22v-38.5  c0-5.799,4.701-10.5,10.5-10.5S43,73.777,43,79.577V118.077z M65,191.11v-20.034h25.231L65,191.11z M161,191.302l-24.799-20.226H161  V191.302z M59.357,151.077l0.102-74H167.23l0.138,74H59.357z M206,118.077h-21v-38.5c0-5.799,4.701-10.5,10.5-10.5  s10.5,4.701,10.5,10.5V118.077z"
   id="path1119"
   style="fill:#cccccc;fill-opacity:1" />
<g
   id="g1121">
</g>
<g
   id="g1123">
</g>
<g
   id="g1125">
</g>
<g
   id="g1127">
</g>
<g
   id="g1129">
</g>
<g
   id="g1131">
</g>
<g
   id="g1133">
</g>
<g
   id="g1135">
</g>
<g
   id="g1137">
</g>
<g
   id="g1139">
</g>
<g
   id="g1141">
</g>
<g
   id="g1143">
</g>
<g
   id="g1145">
</g>
<g
   id="g1147">
</g>
<g
   id="g1149">
</g>
</svg>
