<?xml version="1.0" encoding="UTF-8" standalone="no"?>
<svg
   xmlns:dc="http://purl.org/dc/elements/1.1/"
   xmlns:cc="http://creativecommons.org/ns#"
   xmlns:rdf="http://www.w3.org/1999/02/22-rdf-syntax-ns#"
   xmlns:svg="http://www.w3.org/2000/svg"
   xmlns="http://www.w3.org/2000/svg"
   xmlns:sodipodi="http://sodipodi.sourceforge.net/DTD/sodipodi-0.dtd"
   xmlns:inkscape="http://www.inkscape.org/namespaces/inkscape"
   version="1.1"
   id="Layer_1"
   x="0px"
   y="0px"
   viewBox="0 0 512 512"
   style="enable-background:new 0 0 512 512;"
   xml:space="preserve"
   sodipodi:docname="bridge-3.svg"
   inkscape:version="1.0.2 (e86c870879, 2021-01-15)"><metadata
   id="metadata965"><rdf:RDF><cc:Work
       rdf:about=""><dc:format>image/svg+xml</dc:format><dc:type
         rdf:resource="http://purl.org/dc/dcmitype/StillImage" /></cc:Work></rdf:RDF></metadata><defs
   id="defs963" /><sodipodi:namedview
   pagecolor="#ffffff"
   bordercolor="#666666"
   borderopacity="1"
   objecttolerance="10"
   gridtolerance="10"
   guidetolerance="10"
   inkscape:pageopacity="0"
   inkscape:pageshadow="2"
   inkscape:window-width="1920"
   inkscape:window-height="1053"
   id="namedview961"
   showgrid="false"
   inkscape:zoom="1.4277344"
   inkscape:cx="257.40082"
   inkscape:cy="256"
   inkscape:window-x="0"
   inkscape:window-y="27"
   inkscape:window-maximized="1"
   inkscape:current-layer="Layer_1" />
<g
   transform="translate(0 -1)"
   id="g928"
   style="fill:#cccccc;fill-opacity:1">
	<g
   id="g926"
   style="fill:#cccccc;fill-opacity:1">
		<g
   id="g924"
   style="fill:#cccccc;fill-opacity:1">
			<path
   d="M196.267,449c-5.12,0-8.533,3.413-8.533,8.533s-3.413,8.533-8.533,8.533s-8.533-3.413-8.533-8.533     S167.253,449,162.133,449s-8.533,3.413-8.533,8.533c0,14.507,11.093,25.6,25.6,25.6s25.6-11.093,25.6-25.6     C204.8,452.413,201.387,449,196.267,449z"
   id="path918"
   style="fill:#cccccc;fill-opacity:1" />
			<path
   d="M349.867,449c-5.12,0-8.533,3.413-8.533,8.533s-3.413,8.533-8.533,8.533c-5.12,0-8.533-3.413-8.533-8.533     S320.853,449,315.733,449s-8.533,3.413-8.533,8.533c0,14.507,11.093,25.6,25.6,25.6c14.507,0,25.6-11.093,25.6-25.6     C358.4,452.413,354.987,449,349.867,449z"
   id="path920"
   style="fill:#cccccc;fill-opacity:1" />
			<path
   d="M503.467,184.467c5.12,0,8.533-3.413,8.533-8.533V141.8c0-5.12-3.413-8.533-8.533-8.533h-10.24l-14.507-56.32     c9.387-5.973,16.213-17.067,16.213-29.013c0-18.773-15.36-34.133-34.133-34.133c-18.773,0-34.133,15.36-34.133,34.133     c0,11.947,6.827,23.04,16.213,29.013l-14.507,56.32h-10.24c-5.12,0-8.533,3.413-8.533,8.533v8.533H102.4V141.8     c0-5.12-3.413-8.533-8.533-8.533h-10.24L69.12,76.947c9.387-5.973,16.213-17.067,16.213-29.013     C85.333,29.16,69.973,13.8,51.2,13.8S17.067,29.16,17.067,47.933c0,11.947,6.827,23.04,16.213,29.013l-14.507,56.32H8.533     C3.413,133.267,0,136.68,0,141.8v34.133c0,5.12,3.413,8.533,8.533,8.533h8.533v51.2H8.533C3.413,235.667,0,239.08,0,244.2v34.133     c0,5.12,3.413,8.533,8.533,8.533h8.533v51.2h51.2c5.12,0,8.533,3.413,8.533,8.533c0,5.12-3.413,8.533-8.533,8.533h-51.2v34.133     h76.8c5.12,0,8.533,3.413,8.533,8.533s-3.413,8.533-8.533,8.533h-76.8v85.333c0,5.12,3.413,8.533,8.533,8.533h85.333     c5.12,0,8.533-3.413,8.533-8.533c0-75.093,61.44-136.533,136.533-136.533s136.533,61.44,136.533,136.533     c0,5.12,3.413,8.533,8.533,8.533H486.4c5.12,0,8.533-3.413,8.533-8.533v-85.333h-76.8c-5.12,0-8.533-3.413-8.533-8.533     s3.413-8.533,8.533-8.533h76.8v-34.133h-51.2c-5.12,0-8.533-3.413-8.533-8.533c0-5.12,3.413-8.533,8.533-8.533h51.2v-51.2h8.533     c5.12,0,8.533-3.413,8.533-8.533V244.2c0-5.12-3.413-8.533-8.533-8.533h-8.533v-51.2H503.467z M460.8,30.867     c9.387,0,17.067,7.68,17.067,17.067c0,9.387-7.68,17.067-17.067,17.067s-17.067-7.68-17.067-17.067     C443.733,38.547,451.413,30.867,460.8,30.867z M392.533,167.4H409.6v8.533c0,5.12,3.413,8.533,8.533,8.533h8.533v51.2h-34.133     V167.4z M349.867,167.4h25.6v68.267h-25.6V167.4z M307.2,167.4h25.6v68.267h-25.6V167.4z M264.533,167.4h25.6v68.267h-25.6V167.4     z M221.867,167.4h25.6v68.267h-25.6V167.4z M179.2,167.4h25.6v68.267h-25.6V167.4z M136.533,167.4h25.6v68.267h-25.6V167.4z      M102.4,175.933V167.4h17.067v68.267H85.333v-51.2h8.533C98.987,184.467,102.4,181.053,102.4,175.933z M51.2,30.867     c9.387,0,17.067,7.68,17.067,17.067C68.267,57.32,60.587,65,51.2,65s-17.067-7.68-17.067-17.067     C34.133,38.547,41.813,30.867,51.2,30.867z M17.067,150.333H25.6h51.2h8.533V167.4H76.8H25.6h-8.533V150.333z M68.267,184.467     v51.2H34.133v-51.2H68.267z M494.933,269.8H486.4H25.6h-8.533v-17.067H25.6h51.2h358.4h51.2h8.533V269.8z M443.733,235.667v-51.2     h34.133v51.2H443.733z M486.4,167.4h-51.2h-8.533v-17.067h8.533h51.2h8.533V167.4H486.4z"
   id="path922"
   style="fill:#cccccc;fill-opacity:1" />
		</g>
	</g>
</g>
<g
   id="g930">
</g>
<g
   id="g932">
</g>
<g
   id="g934">
</g>
<g
   id="g936">
</g>
<g
   id="g938">
</g>
<g
   id="g940">
</g>
<g
   id="g942">
</g>
<g
   id="g944">
</g>
<g
   id="g946">
</g>
<g
   id="g948">
</g>
<g
   id="g950">
</g>
<g
   id="g952">
</g>
<g
   id="g954">
</g>
<g
   id="g956">
</g>
<g
   id="g958">
</g>
</svg>
