<?xml version="1.0" encoding="iso-8859-1"?>
<!-- Generator: Adobe Illustrator 19.0.0, SVG Export Plug-In . SVG Version: 6.00 Build 0)  -->
<svg version="1.1" id="Layer_1" xmlns="http://www.w3.org/2000/svg" xmlns:xlink="http://www.w3.org/1999/xlink" x="0px" y="0px"
	 viewBox="0 0 489 489" style="enable-background:new 0 0 489 489;" xml:space="preserve">
<g>
	<g>
		<path d="M468.2,69.25c11.4,0,20.8-9.4,20.8-20.8s-9.4-20.8-20.8-20.8l-298.6,1c-11.4,0-20.8,9.4-20.8,20.8s9.4,20.8,20.8,20.8
			l128.1-0.4l0.6,56.6H186.2c-11.4,0-20.8,9.4-20.8,20.8v83.3H41.6v-24c0-11.4-9.4-20.8-20.8-20.8S0,195.15,0,206.55v89.5
			c0,11.4,9.4,20.8,20.8,20.8c10.4,0,19.8-9.4,20.8-19.8v-25h123.8v83.2c0,11.4,9.4,20.8,20.8,20.8h30.2v43.7h-22.9
			c-11.4,0-20.8,9.4-20.8,20.8s9.4,20.8,20.8,20.8h249.7c11.4,0,20.8-9.4,20.8-20.8s-9.4-20.8-20.8-20.8h-22.9v-43.7h31.2
			c11.4,0,19.8-9.4,19.8-21.8v-73.9c0-78-57.4-142-132.3-152.5l-0.6-58.3L468.2,69.25z M378.7,419.85H258v-43.7h120.7V419.85z
			 M430.7,281.45v54.1H206v-167.5h111.3C379.7,168.05,430.7,219.05,430.7,281.45z"/>
		<polygon points="308,209.65 308,251.35 265.3,251.35 265.3,272.15 309,272.15 309,314.75 327.7,314.75 327.7,272.15 370.4,272.15 
			370.4,251.35 327.7,251.35 327.7,209.65 		"/>
	</g>
</g>
<g>
</g>
<g>
</g>
<g>
</g>
<g>
</g>
<g>
</g>
<g>
</g>
<g>
</g>
<g>
</g>
<g>
</g>
<g>
</g>
<g>
</g>
<g>
</g>
<g>
</g>
<g>
</g>
<g>
</g>
</svg>
