<?xml version="1.0" encoding="UTF-8" standalone="no"?>
<svg
   xmlns:dc="http://purl.org/dc/elements/1.1/"
   xmlns:cc="http://creativecommons.org/ns#"
   xmlns:rdf="http://www.w3.org/1999/02/22-rdf-syntax-ns#"
   xmlns:svg="http://www.w3.org/2000/svg"
   xmlns="http://www.w3.org/2000/svg"
   xmlns:sodipodi="http://sodipodi.sourceforge.net/DTD/sodipodi-0.dtd"
   xmlns:inkscape="http://www.inkscape.org/namespaces/inkscape"
   width="24px"
   height="24px"
   viewBox="0 0 24 24"
   id="_24x24_On_Light_Pattern"
   data-name="24x24/On Light/Pattern"
   version="1.1"
   sodipodi:docname="grass.svg"
   inkscape:version="1.0.2 (e86c870879, 2021-01-15)">
  <metadata
     id="metadata1151">
    <rdf:RDF>
      <cc:Work
         rdf:about="">
        <dc:format>image/svg+xml</dc:format>
        <dc:type
           rdf:resource="http://purl.org/dc/dcmitype/StillImage" />
      </cc:Work>
    </rdf:RDF>
  </metadata>
  <defs
     id="defs1149" />
  <sodipodi:namedview
     pagecolor="#ffffff"
     bordercolor="#666666"
     borderopacity="1"
     objecttolerance="10"
     gridtolerance="10"
     guidetolerance="10"
     inkscape:pageopacity="0"
     inkscape:pageshadow="2"
     inkscape:window-width="1165"
     inkscape:window-height="977"
     id="namedview1147"
     showgrid="false"
     inkscape:zoom="30.458333"
     inkscape:cx="11.934337"
     inkscape:cy="11.835841"
     inkscape:window-x="173"
     inkscape:window-y="43"
     inkscape:window-maximized="0"
     inkscape:current-layer="_24x24_On_Light_Pattern" />
  <rect
     id="view-box"
     width="24"
     height="24"
     fill="#141124"
     opacity="0" />
  <path
     id="Shape"
     d="M 6,8.75 C 6,6.2998413 8.962131,5.0732413 10.694445,6.8055551 12.426759,8.537869 11.200159,11.5 8.75,11.5 7.23252,11.497798 6.0027535,10.268479 6,8.751 Z m 1.5,0 c 4e-7,1.1134672 1.3459255,1.671122 2.1334852,0.8841916 C 10.421045,8.8472615 9.8644668,7.5008908 8.751,7.5 8.0600918,7.5 7.5,8.0600918 7.5,8.751 Z"
     transform="translate(3.25,3.25)"
     fill="#141124"
     sodipodi:nodetypes="sscsscsccc"
     style="fill:#ffff00" />
  <path
     style="fill:#ffff00;stroke-width:0.0328317"
     d="m 11.771665,13.211742 c -0.967867,-0.189727 -1.332139,-1.379254 -0.635658,-2.075735 0.722704,-0.722704 1.914249,-0.319891 2.083999,0.704516 0.09833,0.593374 -0.318014,1.194261 -0.939626,1.356128 -0.214363,0.05582 -0.28956,0.05805 -0.508715,0.01509 z"
     id="path1153" />
  <path
     style="fill:#ffff00;stroke-width:0.0328317"
     d="m 11.632425,13.153424 c -0.346243,-0.114367 -0.587503,-0.341549 -0.754206,-0.710196 -0.05797,-0.128187 -0.07449,-0.225461 -0.0754,-0.443918 -10e-4,-0.250409 0.01,-0.30244 0.105244,-0.495924 0.128162,-0.260333 0.36299,-0.490885 0.625138,-0.613754 0.157607,-0.07387 0.232518,-0.08797 0.466804,-0.08784 0.361406,1.97e-4 0.60986,0.106321 0.854495,0.364986 0.251795,0.266237 0.343899,0.489513 0.343711,0.83322 -1.31e-4,0.237713 -0.01411,0.309345 -0.09436,0.483361 -0.255912,0.554929 -0.913452,0.854364 -1.471417,0.670063 z"
     id="path1155" />
</svg>
