<?xml version="1.0" encoding="UTF-8" standalone="no"?>
<svg
   xmlns:dc="http://purl.org/dc/elements/1.1/"
   xmlns:cc="http://creativecommons.org/ns#"
   xmlns:rdf="http://www.w3.org/1999/02/22-rdf-syntax-ns#"
   xmlns:svg="http://www.w3.org/2000/svg"
   xmlns="http://www.w3.org/2000/svg"
   xmlns:sodipodi="http://sodipodi.sourceforge.net/DTD/sodipodi-0.dtd"
   xmlns:inkscape="http://www.inkscape.org/namespaces/inkscape"
   version="1.1"
   id="Capa_1"
   x="0px"
   y="0px"
   viewBox="0 0 448 448"
   style="enable-background:new 0 0 448 448;"
   xml:space="preserve"
   sodipodi:docname="forest-1.svg"
   inkscape:version="1.0.2 (e86c870879, 2021-01-15)"><metadata
   id="metadata465"><rdf:RDF><cc:Work
       rdf:about=""><dc:format>image/svg+xml</dc:format><dc:type
         rdf:resource="http://purl.org/dc/dcmitype/StillImage" /></cc:Work></rdf:RDF></metadata><defs
   id="defs463" /><sodipodi:namedview
   pagecolor="#ffffff"
   bordercolor="#666666"
   borderopacity="1"
   objecttolerance="10"
   gridtolerance="10"
   guidetolerance="10"
   inkscape:pageopacity="0"
   inkscape:pageshadow="2"
   inkscape:window-width="1920"
   inkscape:window-height="1022"
   id="namedview461"
   showgrid="false"
   inkscape:zoom="1.6316964"
   inkscape:cx="225.22572"
   inkscape:cy="220.9357"
   inkscape:window-x="0"
   inkscape:window-y="24"
   inkscape:window-maximized="1"
   inkscape:current-layer="Capa_1" />
<path
   d="M448,249c0-57.346-46.654-104-104-104c-20.33,0-40.22,6.023-57.089,17.095c-4.38-19.182-10.203-37.662-17.235-54.198  C250.781,63.469,226.036,39,200,39c-26.065,0-50.81,24.368-69.673,68.615c-6.645,15.587-12.212,32.94-16.501,51.01l-26.108-95.73  C86.768,59.415,83.607,57,80,57s-6.769,2.415-7.718,5.896l-72,264c-0.656,2.405-0.153,4.979,1.36,6.96  C3.156,335.838,5.507,337,8,337h64v64c0,4.418,3.582,8,8,8s8-3.582,8-8v-64h64c2.493,0,4.844-1.162,6.357-3.145  c1.232-1.613,1.781-3.618,1.594-5.606c9.898,4.555,20.696,7.475,32.049,8.415V401c0,4.418,3.582,8,8,8s8-3.582,8-8v-64.335  c20.768-1.719,39.684-10.067,54.62-22.92c18.014,22.626,44.584,36.72,73.38,38.936V401c0,4.418,3.582,8,8,8s8-3.582,8-8v-48.305  C405.622,348.597,448,303.654,448,249z M141.526,321H88v-12.686l14.157-14.157c3.124-3.125,3.124-8.189,0-11.314  c-3.125-3.123-8.189-3.123-11.314,0L88,285.685V233c0-4.418-3.582-8-8-8s-8,3.582-8,8v36.686l-10.343-10.343  c-3.125-3.123-8.189-3.123-11.314,0c-3.124,3.125-3.124,8.189,0,11.314L72,292.314v12.68c0,0.003,0,0.007,0,0.01V321H18.474  L80,95.404l27.105,99.383c-2.109,15.543-3.23,31.11-3.23,46.087c0,30.408,14.196,57.559,36.304,75.186L141.526,321z M208,308.314  l29.657-29.657c3.124-3.125,3.124-8.189,0-11.314c-3.125-3.123-8.189-3.123-11.314,0L208,285.685v-33.371l21.657-21.657  c3.124-3.125,3.124-8.189,0-11.314c-3.125-3.123-8.189-3.123-11.314,0L208,229.685V209c0-4.418-3.582-8-8-8s-8,3.582-8,8v39.995  c0,0.003,0,0.007,0,0.01v20.68l-18.343-18.343c-3.125-3.123-8.189-3.123-11.314,0c-3.124,3.125-3.124,8.189,0,11.314L192,292.314  v12.68c0,0.003,0,0.007,0,0.01v15.594c-40.438-4.028-72.125-38.244-72.125-79.724c0-42.544,9.409-90.016,25.17-126.984  C161.001,76.465,181.031,55,200,55c18.934,0,38.963,21.563,54.952,59.159c15.763,37.064,25.173,84.435,25.173,126.716  c0,41.481-31.687,75.697-72.125,79.724V308.314z M352,336.633v-12.318l29.657-29.657c3.124-3.125,3.124-8.189,0-11.314  c-3.125-3.123-8.189-3.123-11.314,0L352,301.685V249c0-4.418-3.582-8-8-8s-8,3.582-8,8v36.686l-18.343-18.343  c-3.125-3.123-8.189-3.123-11.314,0c-3.124,3.125-3.124,8.189,0,11.314L336,308.314v12.68c0,0.003,0,0.007,0,0.01v15.63  c-24.538-2.234-47.064-14.677-62.066-34.398c13.85-16.659,22.191-38.054,22.191-61.362c0-19.952-2.01-40.994-5.723-61.656  C305.707,167.458,324.618,161,344,161c48.523,0,88,39.477,88,88C432,294.826,396.788,332.577,352,336.633z"
   id="path428"
   style="fill:#502d16" />
<g
   id="g430">
</g>
<g
   id="g432">
</g>
<g
   id="g434">
</g>
<g
   id="g436">
</g>
<g
   id="g438">
</g>
<g
   id="g440">
</g>
<g
   id="g442">
</g>
<g
   id="g444">
</g>
<g
   id="g446">
</g>
<g
   id="g448">
</g>
<g
   id="g450">
</g>
<g
   id="g452">
</g>
<g
   id="g454">
</g>
<g
   id="g456">
</g>
<g
   id="g458">
</g>
<path
   style="fill:#00ff00;fill-opacity:1;stroke-width:0.612859"
   d="M 49.279651,209.29766 C 65.995268,147.95392 79.810906,97.760757 79.98106,97.757304 c 0.17016,-0.0035 6.264223,21.849806 13.542366,48.562806 l 13.232984,48.56908 -0.77235,6.43502 c -2.48693,20.72076 -2.85724,44.50358 -0.87359,56.10666 2.19872,12.8611 7.3293,25.7873 14.5832,36.7415 4.20969,6.35709 12.03279,15.30499 16.87832,19.30506 2.40332,1.98398 3.51208,3.40277 3.95124,5.05609 l 0.61046,2.29822 H 114.84592 88.55814 v -6.23632 -6.2363 l 7.967168,-8.10395 7.967172,-8.10395 v -3.18488 c 0,-5.46658 -2.94958,-8.5833 -8.122992,-8.5833 -2.0488,0 -3.348,0.45161 -5.238131,1.82081 l -2.513562,1.82081 -0.183042,-26.82281 c -0.166557,-24.40709 -0.280402,-26.97131 -1.264084,-28.47165 -3.355544,-5.11799 -10.528381,-5.24084 -14.196871,-0.24315 -1.208133,1.64587 -1.278942,2.64548 -1.469753,20.74866 l -0.200469,19.01948 -5.326296,-5.21206 c -3.917062,-3.83306 -5.980921,-5.38833 -7.800498,-5.8783 -4.581346,-1.23363 -8.90103,1.11394 -10.075505,5.47561 -1.248759,4.63753 -0.663023,5.53932 11.744931,18.08222 l 11.551877,11.67751 v 14.21579 14.21578 H 45.142852 18.887618 Z"
   id="path1296" /><path
   style="fill:#00ff00;fill-opacity:1;stroke-width:0.612859"
   d="m 184.0324,319.00642 c -15.67062,-3.30431 -28.87514,-10.52132 -40.31694,-22.03549 -12.28653,-12.36423 -19.5398,-26.37288 -22.42791,-43.31631 -0.8558,-5.02066 -0.96975,-8.66596 -0.67757,-21.67554 0.73803,-32.86072 6.3482,-64.88049 16.96794,-96.84365 14.47276,-43.559974 34.55901,-72.361313 54.77953,-78.547464 5.27736,-1.614528 12.44863,-1.330033 17.53444,0.695616 28.66928,11.418814 56.42381,68.857618 66.49128,137.605608 1.76495,12.05239 2.78699,24.1103 3.16874,37.38441 0.45073,15.67318 -0.35726,22.73279 -3.80729,33.26514 -9.03593,27.58515 -32.60525,48.30058 -61.17388,53.76666 -7.02891,1.34485 -6.50508,1.72656 -6.50508,-4.74016 v -5.65364 l 15.57224,-15.64321 c 16.37049,-16.44511 17.10889,-17.43339 16.43841,-22.00164 -0.38976,-2.6556 -3.69157,-5.9574 -6.34716,-6.34716 -4.29027,-0.62968 -5.89232,0.4153 -16.01096,10.44363 l -9.65253,9.56639 v -16.21008 -16.21008 l 11.68473,-11.69627 c 12.37664,-12.38885 13.11421,-13.47506 12.17234,-17.92572 -0.861,-4.06849 -5.23721,-6.76701 -9.63587,-5.94182 -1.74681,0.3277 -3.5771,1.72905 -8.23365,6.30402 l -5.98755,5.88265 v -11.17662 c 0,-12.43377 -0.35416,-13.90572 -3.86012,-16.04343 -4.02948,-2.45691 -9.3715,-0.74846 -11.61362,3.71418 -0.9769,1.94441 -1.07163,4.8086 -1.0725,32.42735 l -9.5e-4,30.29456 -9.3461,-9.21281 c -10.32929,-10.18198 -12.20928,-11.3345 -16.4274,-10.07071 -2.50812,0.75145 -5.2536,3.53417 -5.85637,5.93582 -0.20554,0.81891 -0.18456,2.52133 0.0466,3.78313 0.36063,1.96839 2.63307,4.51572 16.00178,17.93741 l 15.58147,15.64322 v 13.92723 c 0,12.87189 -0.0813,13.92397 -1.07251,13.88412 -0.58987,-0.0237 -3.47598,-0.54992 -6.41356,-1.16934 z"
   id="path1298" /><path
   style="fill:#00ff00;fill-opacity:1;stroke-width:0.612859"
   d="m 326.55949,334.8875 c -18.62971,-3.91407 -36.56968,-14.37759 -48.42424,-28.2435 l -3.77994,-4.42128 2.02391,-2.49303 c 9.99407,-12.31064 17.15157,-29.98422 19.36373,-47.81374 1.51774,-12.23256 -0.0425,-40.70679 -3.42517,-62.50851 -0.83387,-5.37447 -1.51614,-9.8476 -1.51614,-9.94029 0,-0.0927 2.11167,-1.59345 4.69259,-3.33504 8.6953,-5.86752 20.44882,-10.77679 31.65302,-13.22097 7.1607,-1.5621 26.21803,-1.56762 33.44357,-0.01 7.9076,1.70499 14.50901,3.93823 21.2204,7.17879 24.97647,12.05977 42.28175,34.3427 48.21068,62.07789 1.75532,8.21129 1.89687,25.05623 0.27392,32.597 -3.83054,17.79795 -11.28799,32.28869 -22.8926,44.48315 -13.67684,14.37201 -33.26512,24.44731 -51.79173,26.63924 l -3.52394,0.41693 v -5.72426 -5.72425 l 15.57224,-15.64322 c 12.48185,-12.53873 15.69576,-16.10164 16.19461,-17.95319 0.99212,-3.68234 -0.57395,-7.78227 -3.56306,-9.328 -2.10094,-1.08644 -6.26869,-1.21238 -8.17294,-0.24698 -0.73625,0.37326 -5.54439,4.85146 -10.68475,9.95155 l -9.3461,9.27289 v -27.14204 c 0,-29.55458 0.0168,-29.40164 -3.48817,-31.6982 -2.41796,-1.58431 -6.97734,-1.55246 -9.18257,0.0642 -3.73648,2.73913 -3.87446,3.59917 -3.8755,24.15718 l -9.5e-4,18.68502 -9.66068,-9.64652 c -6.43265,-6.42322 -10.30931,-9.83255 -11.60185,-10.20325 -2.84168,-0.81498 -6.34216,0.1811 -8.29506,2.36039 -2.03488,2.27078 -2.57967,4.21855 -2.02567,7.24239 0.36064,1.96839 2.63308,4.51571 16.00179,17.93741 l 15.58147,15.64321 v 13.92724 13.92723 l -1.68537,-0.0435 c -0.92695,-0.0239 -4.20992,-0.57392 -7.2955,-1.2222 z"
   id="path1300" /></svg>
