<?xml version="1.0" encoding="iso-8859-1"?>
<!-- Generator: Adobe Illustrator 19.0.0, SVG Export Plug-In . SVG Version: 6.00 Build 0)  -->
<svg version="1.1" id="Layer_1" xmlns="http://www.w3.org/2000/svg" xmlns:xlink="http://www.w3.org/1999/xlink" x="0px" y="0px"
	 viewBox="0 0 512 512" style="enable-background:new 0 0 512 512;" xml:space="preserve">
<g>
	<g>
		<g>
			<path d="M222.883,285.922c1.541,3.07,4.638,4.842,7.853,4.842c1.325,0,2.67-0.302,3.935-0.937
				c4.333-2.176,6.081-7.454,3.904-11.786l-19.699-39.213c-2.176-4.335-7.456-6.081-11.786-3.905
				c-4.333,2.176-6.081,7.454-3.904,11.786L222.883,285.922z"/>
			<path d="M218.356,351.106c-3.217-3.629-8.767-3.96-12.394-0.743c-3.628,3.218-3.96,8.767-0.742,12.395l25.726,29.005
				c1.735,1.956,4.148,2.954,6.572,2.954c2.071,0,4.151-0.729,5.823-2.211c3.628-3.218,3.96-8.767,0.742-12.395L218.356,351.106z"/>
			<path d="M248.612,125.563c-3.697-3.137-9.237-2.686-12.375,1.011l-29.107,34.285c-3.139,3.696-2.686,9.238,1.01,12.375
				c1.652,1.401,3.67,2.086,5.679,2.086c2.488,0,4.96-1.051,6.698-3.098l29.107-34.285
				C252.762,134.242,252.309,128.702,248.612,125.563z"/>
			<path d="M490.616,167.024c-20.462-83.559-50.169-125.926-88.294-125.926c-24.827,0-46.208,18.174-63.738,54.086
				c-18.991-55.161-43.305-83.045-72.571-83.045c-32.229,0-58.453,33.813-78.176,100.639C168.107,45.974,141.88,12.14,109.678,12.14
				c-38.123,0-67.846,47.307-88.342,140.609C5.215,226.133,0,303.951,0,330.139c0,46.937,29.641,87.076,71.186,102.698v58.243
				c0,4.85,3.931,8.78,8.78,8.78h59.425c4.849,0,8.78-3.93,8.78-8.78v-58.209c14.845-5.556,28.403-14.323,39.714-25.84
				c11.085,11.262,24.577,20.144,39.636,25.807v58.243c0,4.85,3.931,8.78,8.78,8.78h59.425c4.849,0,8.78-3.93,8.78-8.78v-58.243
				c10.787-4.056,20.77-9.763,29.642-16.816c8.862,7.045,18.675,12.634,29.114,16.612v58.448c0,4.85,3.931,8.78,8.78,8.78h59.993
				c4.849,0,8.78-3.93,8.78-8.78v-58.244C482.359,417.214,512,377.076,512,330.139C512,300.835,506.195,230.638,490.616,167.024z
				 M130.611,482.3H88.746v-44.497c6.778,1.315,13.775,2.012,20.932,2.012c7.098,0,14.102-0.682,20.933-2.003V482.3z
				 M109.678,422.255c-50.794,0-92.118-41.323-92.118-92.116c0-24.548,5.269-102.348,20.927-173.623
				C56.453,74.738,81.735,29.7,109.678,29.7c26.825,0,51.35,41.85,69.152,117.873c-0.39,1.711-0.777,3.434-1.16,5.177
				c-9.124,41.537-14.754,84.493-17.923,118.704c-0.104-0.904-0.346-1.809-0.749-2.681l-17.169-37.14
				c-2.035-4.401-7.252-6.319-11.654-4.285c-4.402,2.035-6.319,7.252-4.285,11.654l17.169,37.14
				c1.483,3.208,4.658,5.097,7.976,5.097c1.233,0,2.485-0.262,3.68-0.812c2.372-1.097,4.013-3.12,4.713-5.439
				c-2.195,24.587-3.092,44.303-3.092,55.152c0,11.38,1.743,22.36,4.975,32.689c-2.968-0.582-6.155,0.378-8.294,2.814l-25.755,29.34
				c-3.2,3.644-2.838,9.192,0.805,12.392c1.667,1.463,3.732,2.181,5.789,2.181c2.44,0,4.867-1.01,6.601-2.988l25.755-29.339
				c0.171-0.195,0.327-0.398,0.478-0.603c2.787,5.931,6.085,11.577,9.845,16.872C159.159,411.843,135.138,422.255,109.678,422.255z
				 M286.945,482.3H245.08v-44.497c6.778,1.315,13.774,2.012,20.932,2.012c7.158,0,14.154-0.698,20.933-2.012V482.3z
				 M266.013,422.255c-50.794,0-92.118-41.323-92.118-92.115c0-24.548,5.269-102.348,20.927-173.623
				C212.787,74.738,238.07,29.7,266.013,29.7c27.943,0,53.225,45.039,71.19,126.817c15.658,71.275,20.927,149.075,20.927,173.623
				C358.13,380.932,316.806,422.255,266.013,422.255z M423.254,482.3h-42.433V437.68c7.024,1.398,14.218,2.135,21.5,2.135
				c7.158,0,14.154-0.698,20.933-2.012V482.3z M402.322,422.255c-20.044,0-39.324-6.474-55.194-18.372
				c17.736-19.491,28.562-45.377,28.562-73.744c0-12.132-1.12-35.349-3.924-64.068c0.869,1.871,2.387,3.448,4.424,4.342
				c1.148,0.505,2.346,0.743,3.526,0.743c3.377,0,6.599-1.961,8.044-5.252l15.982-36.397c1.95-4.44-0.069-9.621-4.509-11.57
				c-4.44-1.949-9.621,0.069-11.57,4.51l-15.982,36.397c-0.214,0.486-0.371,0.982-0.492,1.481
				c-3.31-32.148-8.674-70.427-16.834-107.577c-2.477-11.276-5.09-21.874-7.835-31.804c11.289-29.043,29.876-62.286,55.803-62.286
				c28.167,0,53.466,39.968,71.237,112.543c14.402,58.81,20.88,128.347,20.88,158.939
				C494.44,380.932,453.116,422.255,402.322,422.255z"/>
			<path d="M56.918,239.935c1.66,2.687,4.534,4.164,7.476,4.164c1.576,0,3.17-0.424,4.609-1.314c4.124-2.551,5.4-7.962,2.851-12.085
				l-17.937-29.008c-2.55-4.124-7.959-5.4-12.085-2.851c-4.124,2.551-5.4,7.962-2.851,12.085L56.918,239.935z"/>
			<path d="M151.037,146.295c1.683,0,3.386-0.483,4.888-1.493c4.025-2.704,5.097-8.159,2.392-12.183l-21.852-32.532
				c-2.703-4.026-8.16-5.098-12.184-2.393c-4.025,2.704-5.097,8.159-2.392,12.183l21.852,32.532
				C145.434,144.932,148.21,146.295,151.037,146.295z"/>
			<path d="M66.567,312.244l-26.536,28.397c-3.311,3.542-3.122,9.099,0.42,12.41c1.693,1.583,3.846,2.366,5.993,2.366
				c2.346,0,4.687-0.935,6.418-2.785l26.536-28.397c3.311-3.542,3.122-9.099-0.42-12.41
				C75.435,308.515,69.879,308.702,66.567,312.244z"/>
			<path d="M98.22,68.306c-4.473-1.874-9.617,0.228-11.494,4.699l-17.937,42.744c-1.877,4.471,0.227,9.617,4.698,11.494
				c1.11,0.465,2.262,0.686,3.394,0.686c3.431,0,6.689-2.024,8.1-5.385L102.918,79.8C104.795,75.329,102.691,70.184,98.22,68.306z"
				/>
			<path d="M348.541,346.359c-3.319-3.534-8.876-3.709-12.412-0.387l-28.345,26.627c-3.534,3.32-3.708,8.876-0.388,12.41
				c1.728,1.839,4.061,2.769,6.401,2.769c2.155,0,4.315-0.789,6.01-2.381l28.345-26.627
				C351.688,355.448,351.861,349.892,348.541,346.359z"/>
			<path d="M476.856,229.053c-4.108-2.579-9.527-1.338-12.105,2.766l-21.072,33.56c-2.579,4.107-1.34,9.527,2.766,12.105
				c1.451,0.911,3.066,1.345,4.66,1.345c2.921,0,5.777-1.456,7.444-4.113l21.072-33.56
				C482.2,237.051,480.962,231.63,476.856,229.053z"/>
			<path d="M451.808,340.371c-2.313-4.262-7.642-5.845-11.906-3.53c-4.262,2.313-5.842,7.642-3.53,11.905l19.902,36.678
				c1.591,2.931,4.609,4.594,7.725,4.594c1.414,0,2.849-0.342,4.179-1.064c4.262-2.313,5.842-7.642,3.53-11.905L451.808,340.371z"/>
			<path d="M301.43,106.982c1.875,0,3.765-0.598,5.363-1.832c3.836-2.965,4.543-8.479,1.578-12.317L285.19,62.839
				c-2.964-3.836-8.48-4.542-12.316-1.579c-3.836,2.965-4.543,8.479-1.578,12.317l23.181,29.994
				C296.207,105.809,298.804,106.982,301.43,106.982z"/>
			<path d="M398.276,365.022c-3.689-3.147-9.232-2.705-12.378,0.985L367.1,388.054c-3.147,3.69-2.705,9.232,0.985,12.378
				c1.653,1.409,3.678,2.099,5.693,2.099c2.482,0,4.948-1.048,6.685-3.084l18.799-22.048
				C402.406,373.709,401.966,368.168,398.276,365.022z"/>
			<path d="M381.321,112.23c-1.656-4.557-6.693-6.908-11.251-5.253c-4.557,1.655-6.909,6.693-5.254,11.25l13.303,36.61
				c1.296,3.568,4.665,5.783,8.253,5.783c0.996,0,2.008-0.17,2.997-0.53c4.559-1.655,6.911-6.693,5.254-11.25L381.321,112.23z"/>
			<path d="M463.58,162.417c-2.924-3.867-8.43-4.632-12.298-1.708l-29.657,22.421c-3.868,2.924-4.632,8.43-1.708,12.299
				c1.727,2.283,4.353,3.485,7.01,3.485c1.844,0,3.704-0.578,5.288-1.777l29.657-22.421
				C465.74,171.792,466.505,166.285,463.58,162.417z"/>
			<path d="M295.407,175.295l21.696-26.029c3.105-3.725,2.602-9.261-1.123-12.366c-3.724-3.103-9.261-2.601-12.366,1.123
				l-21.696,26.029c-3.105,3.725-2.602,9.261,1.123,12.366c1.641,1.369,3.635,2.036,5.617,2.036
				C291.173,178.453,293.671,177.377,295.407,175.295z"/>
			<path d="M302.411,254.661l29.7-37.787c2.997-3.813,2.336-9.333-1.477-12.328c-3.812-2.997-9.333-2.337-12.328,1.477l-29.7,37.787
				c-2.997,3.813-2.336,9.333,1.477,12.328c1.609,1.264,3.521,1.878,5.42,1.878C298.104,258.015,300.68,256.866,302.411,254.661z"/>
			<path d="M319.225,333.421c1.421,0,2.864-0.345,4.199-1.075c4.257-2.323,5.823-7.657,3.499-11.914l-17.715-32.453
				c-2.323-4.255-7.656-5.825-11.914-3.499c-4.257,2.323-5.823,7.657-3.499,11.914l17.715,32.453
				C313.104,331.768,316.115,333.421,319.225,333.421z"/>
		</g>
	</g>
</g>
<g>
</g>
<g>
</g>
<g>
</g>
<g>
</g>
<g>
</g>
<g>
</g>
<g>
</g>
<g>
</g>
<g>
</g>
<g>
</g>
<g>
</g>
<g>
</g>
<g>
</g>
<g>
</g>
<g>
</g>
</svg>
