<?xml version="1.0" encoding="iso-8859-1"?>
<!-- Generator: Adobe Illustrator 19.0.0, SVG Export Plug-In . SVG Version: 6.00 Build 0)  -->
<svg version="1.1" id="Layer_1" xmlns="http://www.w3.org/2000/svg" xmlns:xlink="http://www.w3.org/1999/xlink" x="0px" y="0px"
	 viewBox="0 0 513.053 513.053" style="enable-background:new 0 0 513.053 513.053;" xml:space="preserve">
<g>
	<g>
		<path d="M372.544,239.508l-41.891-82.618l12.8-6.982c3.491-1.164,5.818-4.655,5.818-8.145c1.164-3.491,0-6.982-2.327-9.309
			L265.489,27.726c-4.655-5.818-13.964-5.818-18.618,0l-81.455,104.727c-1.164,3.491-1.164,6.982-1.164,10.473
			c1.164,3.491,3.491,5.818,6.982,8.145l12.8,6.982l-41.891,82.618c-2.327,5.818,0,12.8,4.655,15.127l12.8,6.982l-12.8,24.436
			c-2.327,5.818,0,12.8,4.655,15.127c1.164,1.164,3.491,1.164,4.655,1.164c4.655,0,8.145-2.327,10.473-6.982l17.455-34.909
			c2.327-5.818,0-12.8-4.655-15.127l-12.8-6.982l41.891-82.618c2.327-5.818,0-12.8-4.655-15.127l-10.473-5.818l64-81.455l64,81.455
			l-10.473,5.818c-5.818,2.327-8.145,9.309-4.655,15.127l41.891,82.618l-12.8,6.982c-5.818,2.327-8.146,9.309-4.655,15.127
			l17.455,34.909c2.327,5.818,9.309,8.145,15.127,4.655c5.818-2.327,8.145-9.309,4.655-15.127l-12.8-24.436l12.8-6.982
			C373.707,252.308,376.035,245.326,372.544,239.508z"/>
	</g>
</g>
<g>
	<g>
		<path d="M512.18,332.599l-41.891-82.618l12.8-6.982c3.491-1.164,4.655-4.655,5.818-6.982c1.164-3.491,0-6.982-1.164-9.309
			l-39.564-59.345l11.636-5.818c3.491-1.164,4.655-4.655,5.818-6.982c1.164-3.491,0-6.982-1.164-9.309l-58.182-93.091
			c-1.164-2.327-4.655-4.655-9.309-4.655c-3.491,0-6.982,1.164-9.309,4.655l-34.909,46.545c-3.491,4.655-2.327,12.8,2.327,16.291
			s12.8,2.327,16.291-2.327l24.436-32.582l41.891,67.491l-11.636,5.818c-3.491,1.164-4.655,4.655-5.818,6.982
			c-1.164,3.491,0,6.982,1.164,9.309l39.564,59.345l-11.636,5.818c-5.818,2.327-8.145,9.309-4.655,15.127l38.4,76.8H379.525
			c-6.982,0-11.636,4.655-11.636,11.636c0,2.327,0,3.491,1.164,4.655l9.309,18.618H136.325l9.309-17.455
			c1.164-1.164,1.164-2.327,1.164-3.491c1.164-5.818-3.491-11.636-9.309-12.8c-2.327-1.164-4.655-1.164-5.818,0H31.598l38.4-76.8
			c2.327-5.818,0-12.8-4.655-15.127l-11.636-5.818l39.564-59.345c1.164-3.491,1.164-6.982,1.164-10.473
			c-1.164-3.491-3.491-5.818-5.818-6.982l-11.636-5.818l41.891-67.491l24.436,32.582c3.491,4.655,11.636,5.818,16.291,2.327
			s5.818-11.636,2.327-16.291l-34.909-46.545c-2.327-3.491-5.818-4.655-9.309-4.655c-4.655,0-8.145,2.327-9.309,5.818
			l-58.182,93.091c-2.327,2.327-2.327,5.818-2.327,9.309c1.164,3.491,3.491,5.818,5.818,6.982l11.636,5.818L25.78,227.872
			c-1.164,2.327-1.164,5.818-1.164,8.145c1.164,3.491,3.491,5.818,5.818,6.982l12.8,6.982L1.344,332.599
			c-2.327,3.491-1.164,8.145,0,11.636c3.491,3.491,8.145,5.818,11.636,5.818h58.182v69.818c0,6.982-4.655,11.636-11.636,11.636
			H47.889c-6.982,0-11.636,4.655-11.636,11.636s4.655,11.636,11.636,11.636h11.636c19.782,0,34.909-15.127,34.909-34.909v-69.818
			h22.109c-2.327,4.655-5.818,10.473-9.309,18.618c-2.327,3.491-1.164,8.145,0,11.636s6.982,4.655,10.473,4.655h93.091v69.818
			c0,6.982-4.655,11.636-11.636,11.636h-11.636c-6.982,0-11.636,4.655-11.636,11.636s4.655,11.636,11.636,11.636h11.636
			c19.782,0,34.909-15.127,34.909-34.909v-69.818H396.98c3.491,0,8.146-2.327,10.473-5.818s2.327-8.145,0-11.636l-9.309-17.455
			h22.109v69.818c0,19.782,15.127,34.909,34.909,34.909h11.636c6.982,0,11.636-4.655,11.636-11.636s-4.655-11.636-11.636-11.636
			h-11.636c-6.982,0-11.636-4.655-11.636-11.636v-69.818h58.182c3.491,0,8.145-2.327,10.473-5.818
			C513.344,340.745,513.344,337.254,512.18,332.599z"/>
	</g>
</g>
<g>
	<g>
		<path d="M385.344,408.236c-6.982,0-11.636,4.655-11.636,11.636v23.273c0,6.982,4.655,11.636,11.636,11.636
			s11.636-4.655,11.636-11.636v-23.273C396.98,412.89,392.325,408.236,385.344,408.236z"/>
	</g>
</g>
<g>
	<g>
		<path d="M129.344,408.236c-6.982,0-11.636,4.655-11.636,11.636v23.273c0,6.982,4.655,11.636,11.636,11.636
			c6.982,0,11.636-4.655,11.636-11.636v-23.273C140.98,412.89,136.325,408.236,129.344,408.236z"/>
	</g>
</g>
<g>
	<g>
		<path d="M327.162,466.417h-11.636c-6.982,0-11.636-4.655-11.636-11.636v-34.909c0-6.982-4.655-11.636-11.636-11.636
			s-11.636,4.655-11.636,11.636v34.909c0,4.655,1.164,8.146,2.327,11.636h-25.6c-6.982,0-11.636,4.655-11.636,11.636
			s4.655,11.636,11.636,11.636h69.818c6.982,0,11.636-4.655,11.636-11.636S334.144,466.417,327.162,466.417z"/>
	</g>
</g>
<g>
</g>
<g>
</g>
<g>
</g>
<g>
</g>
<g>
</g>
<g>
</g>
<g>
</g>
<g>
</g>
<g>
</g>
<g>
</g>
<g>
</g>
<g>
</g>
<g>
</g>
<g>
</g>
<g>
</g>
</svg>
