<?xml version="1.0" encoding="UTF-8" standalone="no"?>
<svg
   xmlns:dc="http://purl.org/dc/elements/1.1/"
   xmlns:cc="http://creativecommons.org/ns#"
   xmlns:rdf="http://www.w3.org/1999/02/22-rdf-syntax-ns#"
   xmlns:svg="http://www.w3.org/2000/svg"
   xmlns="http://www.w3.org/2000/svg"
   xmlns:sodipodi="http://sodipodi.sourceforge.net/DTD/sodipodi-0.dtd"
   xmlns:inkscape="http://www.inkscape.org/namespaces/inkscape"
   version="1.1"
   id="Layer_1"
   x="0px"
   y="0px"
   viewBox="0 0 513.053 513.053"
   style="enable-background:new 0 0 513.053 513.053;"
   xml:space="preserve"
   sodipodi:docname="forest-2.svg"
   inkscape:version="1.0.2 (e86c870879, 2021-01-15)"><metadata
   id="metadata1473"><rdf:RDF><cc:Work
       rdf:about=""><dc:format>image/svg+xml</dc:format><dc:type
         rdf:resource="http://purl.org/dc/dcmitype/StillImage" /></cc:Work></rdf:RDF></metadata><defs
   id="defs1471" /><sodipodi:namedview
   pagecolor="#ffffff"
   bordercolor="#666666"
   borderopacity="1"
   objecttolerance="10"
   gridtolerance="10"
   guidetolerance="10"
   inkscape:pageopacity="0"
   inkscape:pageshadow="2"
   inkscape:window-width="1428"
   inkscape:window-height="976"
   id="namedview1469"
   showgrid="false"
   inkscape:zoom="1.4248041"
   inkscape:cx="255.12279"
   inkscape:cy="253.01723"
   inkscape:window-x="0"
   inkscape:window-y="24"
   inkscape:window-maximized="0"
   inkscape:current-layer="Layer_1" />
<g
   id="g1412"
   style="fill:#333333">
	<g
   id="g1410"
   style="fill:#333333">
		<path
   d="M372.544,239.508l-41.891-82.618l12.8-6.982c3.491-1.164,5.818-4.655,5.818-8.145c1.164-3.491,0-6.982-2.327-9.309    L265.489,27.726c-4.655-5.818-13.964-5.818-18.618,0l-81.455,104.727c-1.164,3.491-1.164,6.982-1.164,10.473    c1.164,3.491,3.491,5.818,6.982,8.145l12.8,6.982l-41.891,82.618c-2.327,5.818,0,12.8,4.655,15.127l12.8,6.982l-12.8,24.436    c-2.327,5.818,0,12.8,4.655,15.127c1.164,1.164,3.491,1.164,4.655,1.164c4.655,0,8.145-2.327,10.473-6.982l17.455-34.909    c2.327-5.818,0-12.8-4.655-15.127l-12.8-6.982l41.891-82.618c2.327-5.818,0-12.8-4.655-15.127l-10.473-5.818l64-81.455l64,81.455    l-10.473,5.818c-5.818,2.327-8.145,9.309-4.655,15.127l41.891,82.618l-12.8,6.982c-5.818,2.327-8.146,9.309-4.655,15.127    l17.455,34.909c2.327,5.818,9.309,8.145,15.127,4.655c5.818-2.327,8.145-9.309,4.655-15.127l-12.8-24.436l12.8-6.982    C373.707,252.308,376.035,245.326,372.544,239.508z"
   id="path1408"
   style="fill:#333333" />
	</g>
</g>
<g
   id="g1418"
   style="fill:#333333">
	<g
   id="g1416"
   style="fill:#333333">
		<path
   d="m 512.18,332.599 -41.891,-82.618 12.8,-6.982 c 3.491,-1.164 4.655,-4.655 5.818,-6.982 1.164,-3.491 0,-6.982 -1.164,-9.309 l -39.564,-59.345 11.636,-5.818 c 3.491,-1.164 4.655,-4.655 5.818,-6.982 1.164,-3.491 0,-6.982 -1.164,-9.309 L 406.287,52.163 c -1.164,-2.327 -4.655,-4.655 -9.309,-4.655 -3.491,0 -6.982,1.164 -9.309,4.655 L 352.76,98.708 c -3.491,4.655 -29.7188,31.93709 -25.0648,35.42809 4.654,3.491 18.0848,12.28091 21.5758,7.62691 l 46.543,-61.673 41.891,67.491 -11.636,5.818 c -3.491,1.164 -4.655,4.655 -5.818,6.982 -1.164,3.491 0,6.982 1.164,9.309 l 39.564,59.345 -11.636,5.818 c -5.818,2.327 -8.145,9.309 -4.655,15.127 l 38.4,76.8 H 379.525 c -6.982,0 -11.636,4.655 -11.636,11.636 0,2.327 0,3.491 1.164,4.655 l 9.309,18.618 H 136.325 l 9.309,-17.455 c 1.164,-1.164 1.164,-2.327 1.164,-3.491 1.164,-5.818 -3.491,-11.636 -9.309,-12.8 -2.327,-1.164 -4.655,-1.164 -5.818,0 H 31.598 l 38.4,-76.8 c 2.327,-5.818 0,-12.8 -4.655,-15.127 l -11.636,-5.818 39.564,-59.345 c 1.164,-3.491 1.164,-6.982 1.164,-10.473 -1.164,-3.491 -3.491,-5.818 -5.818,-6.982 l -11.636,-5.818 41.891,-67.491 45.38,62.837 c 3.491,4.655 19.22204,1.57554 23.87704,-1.91546 C 192.78404,137.51954 165.417,103.362 161.926,98.707 L 127.017,52.162 c -2.327,-3.491 -5.818,-4.655 -9.309,-4.655 -4.655,0 -8.145,2.327 -9.309,5.818 l -58.182,93.091 c -2.327,2.327 -2.327,5.818 -2.327,9.309 1.164,3.491 3.491,5.818 5.818,6.982 l 11.636,5.818 -39.564,59.347 c -1.164,2.327 -1.164,5.818 -1.164,8.145 1.164,3.491 3.491,5.818 5.818,6.982 l 12.8,6.982 -41.89,82.618 c -2.327,3.491 -1.164,8.145 0,11.636 3.491,3.491 8.145,5.818 11.636,5.818 h 58.182 v 69.818 c 0,6.982 -4.655,11.636 -11.636,11.636 H 47.889 c -6.982,0 -11.636,4.655 -11.636,11.636 0,6.981 4.655,11.636 11.636,11.636 h 11.636 c 19.782,0 34.909,-15.127 34.909,-34.909 v -69.818 h 22.109 c -2.327,4.655 -5.818,10.473 -9.309,18.618 -2.327,3.491 -1.164,8.145 0,11.636 1.164,3.491 6.982,4.655 10.473,4.655 h 93.091 v 69.818 c 0,6.982 -4.655,11.636 -11.636,11.636 h -11.636 c -6.982,0 -11.636,4.655 -11.636,11.636 0,6.981 4.655,11.636 11.636,11.636 h 11.636 c 19.782,0 34.909,-15.127 34.909,-34.909 V 384.96 H 396.98 c 3.491,0 8.146,-2.327 10.473,-5.818 2.327,-3.491 2.327,-8.145 0,-11.636 l -9.309,-17.455 h 22.109 v 69.818 c 0,19.782 15.127,34.909 34.909,34.909 h 11.636 c 6.982,0 11.636,-4.655 11.636,-11.636 0,-6.981 -4.655,-11.636 -11.636,-11.636 h -11.636 c -6.982,0 -11.636,-4.655 -11.636,-11.636 v -69.818 h 58.182 c 3.491,0 8.145,-2.327 10.473,-5.818 1.163,-3.489 1.163,-6.98 -0.001,-11.635 z"
   id="path1414"
   style="fill:#333333"
   sodipodi:nodetypes="ccccccccccsccsccccccccccsscccccccccccccccccsccscccccccccccscssssssscccsscssssssscsscccssssssscscc" />
	</g>
</g>
<g
   id="g1424"
   style="fill:#333333">
	<g
   id="g1422"
   style="fill:#333333">
		<path
   d="M385.344,408.236c-6.982,0-11.636,4.655-11.636,11.636v23.273c0,6.982,4.655,11.636,11.636,11.636    s11.636-4.655,11.636-11.636v-23.273C396.98,412.89,392.325,408.236,385.344,408.236z"
   id="path1420"
   style="fill:#333333" />
	</g>
</g>
<g
   id="g1430">
	<g
   id="g1428">
		<path
   d="M129.344,408.236c-6.982,0-11.636,4.655-11.636,11.636v23.273c0,6.982,4.655,11.636,11.636,11.636    c6.982,0,11.636-4.655,11.636-11.636v-23.273C140.98,412.89,136.325,408.236,129.344,408.236z"
   id="path1426"
   style="fill:#333333" />
	</g>
</g>
<g
   id="g1436"
   style="fill:#333333">
	<g
   id="g1434"
   style="fill:#333333">
		<path
   d="M327.162,466.417h-11.636c-6.982,0-11.636-4.655-11.636-11.636v-34.909c0-6.982-4.655-11.636-11.636-11.636    s-11.636,4.655-11.636,11.636v34.909c0,4.655,1.164,8.146,2.327,11.636h-25.6c-6.982,0-11.636,4.655-11.636,11.636    s4.655,11.636,11.636,11.636h69.818c6.982,0,11.636-4.655,11.636-11.636S334.144,466.417,327.162,466.417z"
   id="path1432"
   style="fill:#333333" />
	</g>
</g>
<g
   id="g1438">
</g>
<g
   id="g1440">
</g>
<g
   id="g1442">
</g>
<g
   id="g1444">
</g>
<g
   id="g1446">
</g>
<g
   id="g1448">
</g>
<g
   id="g1450">
</g>
<g
   id="g1452">
</g>
<g
   id="g1454">
</g>
<g
   id="g1456">
</g>
<g
   id="g1458">
</g>
<g
   id="g1460">
</g>
<g
   id="g1462">
</g>
<g
   id="g1464">
</g>
<g
   id="g1466">
</g>
<path
   style="fill:#008000;stroke-width:0.701851"
   d="m 137.84091,359.98606 c 0.23559,-0.6139 2.34231,-4.64077 4.68161,-8.94859 2.33931,-4.30782 4.42843,-8.68977 4.64249,-9.73766 0.64373,-3.15125 -0.41629,-6.74855 -2.78285,-9.44391 -4.19008,-4.77224 -1.47059,-4.56809 -59.590049,-4.47332 l -52.53689,0.0857 19.36599,-38.72695 c 18.111024,-36.21734 19.36599,-38.97016 19.36599,-42.48009 0,-6.18135 -1.933158,-8.74598 -9.525619,-12.63719 -3.501459,-1.79453 -6.496361,-3.3749 -6.655337,-3.51193 -0.158976,-0.13703 8.626446,-13.62999 19.52316,-29.98435 l 19.812208,-29.73521 0.404606,-5.34982 c 0.572715,-7.57262 -0.817757,-9.55241 -9.893627,-14.08687 -3.710931,-1.85404 -6.747147,-3.51933 -6.747147,-3.70063 0,-1.12269 41.011345,-66.159502 41.431215,-65.702654 1.9681,2.141454 44.86744,62.182614 45.21754,63.285684 0.73663,2.32092 5.55424,6.13482 12.2492,9.69718 3.49481,1.85957 6.35992,3.60096 6.36694,3.86976 0.007,0.2688 -9.38054,18.90294 -20.86122,41.4092 l -20.87394,40.92047 -0.006,4.91296 c -0.008,6.66236 1.34445,8.45131 9.863,13.04353 3.63684,1.96057 6.79277,3.85647 7.0132,4.21312 0.22041,0.35664 -2.42183,6.09478 -5.87166,12.75142 -3.44983,6.65664 -6.46758,13.15698 -6.70613,14.4452 -0.67106,3.62384 0.85109,8.3814 3.54272,11.07304 2.12623,2.12623 2.78396,2.37639 6.24803,2.37639 4.18325,0 6.79389,-1.0292 9.17746,-3.61804 0.83344,-0.90521 5.80781,-10.27243 11.05415,-20.81604 10.42181,-20.9448 10.79226,-22.21718 8.15794,-28.02047 -1.41943,-3.12695 -3.49546,-4.71672 -12.13487,-9.29255 l -4.60818,-2.44071 21.34435,-42.21404 c 22.48912,-44.47815 22.31598,-44.05542 20.32749,-49.63097 -1.3414,-3.76115 -2.68538,-5.02316 -8.94266,-8.39722 -3.14162,-1.69403 -5.35625,-3.31775 -5.17482,-3.79408 0.17444,-0.45799 14.27851,-18.61838 31.3424,-40.35643 17.06407,-21.738052 31.07663,-39.595702 31.1392,-39.683666 0.13549,-0.190451 62.83494,79.578426 63.04768,80.211906 0.0807,0.24035 -2.78867,2.06654 -6.37642,4.05819 -7.58306,4.20956 -9.43043,6.47022 -9.43043,11.54016 0,2.9644 2.30036,7.8455 21.53905,45.7034 16.44417,32.35883 21.31932,42.52555 20.61012,42.98065 -0.51091,0.32785 -4.15618,2.37227 -8.1006,4.54314 -6.20807,3.41673 -7.36326,4.34285 -8.59767,6.8928 -0.78431,1.62015 -1.42601,3.77531 -1.42601,4.78924 0,1.01392 4.73525,11.33997 10.52278,22.94677 11.74336,23.55113 12.01411,23.89869 18.60403,23.88194 4.03766,-0.0102 8.16901,-2.03441 10.46178,-5.12572 1.09675,-1.47873 1.46325,-2.99255 1.44433,-5.96573 -0.0234,-3.67557 -0.55865,-4.98347 -6.91035,-16.8854 -5.36042,-10.04442 -6.67583,-13.03699 -5.94039,-13.51437 0.51955,-0.33724 3.62921,-2.06586 6.91037,-3.84139 3.28115,-1.77552 6.83931,-4.04858 7.90701,-5.05124 2.244,-2.10729 3.56644,-6.23405 2.90251,-9.05755 -0.25301,-1.07601 -10.05821,-20.95084 -21.78932,-44.16629 l -21.32931,-42.20991 7.9225,-4.30063 c 7.86276,-4.26818 9.5143,-5.75252 10.29479,-9.25247 0.5553,-2.49007 45.86969,-62.424561 46.64032,-61.688203 0.33787,0.322837 9.70479,15.217855 20.81539,33.100043 l 20.20109,32.51306 -7.12964,3.60309 c -6.10869,3.08714 -7.36716,4.02569 -8.78831,6.55431 -1.35043,2.40276 -1.60345,3.68963 -1.36147,6.92467 0.28943,3.86931 0.82447,4.76364 20.41291,34.12082 l 20.11571,30.14737 -7.45531,3.8924 c -5.94732,3.10508 -7.7177,4.38706 -8.75252,6.33793 -2.83646,5.34737 -2.90221,5.17642 18.35462,47.72434 10.8085,21.63443 19.65182,39.48892 19.65182,39.67665 0,0.18772 -23.92434,0.34181 -53.1652,0.3424 -49.22873,7e-4 -53.34339,0.092 -55.5718,1.22824 -3.62564,1.84877 -5.17745,4.44112 -5.52367,9.2275 -0.29033,4.01383 -0.12568,4.50421 4.71613,14.04645 l 5.01695,9.88742 h -120.116 c -109.51458,0 -120.07788,-0.0985 -119.68736,-1.11621 z"
   id="path1475" /></svg>
