<?xml version="1.0" encoding="UTF-8" standalone="no"?>
<svg
   xmlns:dc="http://purl.org/dc/elements/1.1/"
   xmlns:cc="http://creativecommons.org/ns#"
   xmlns:rdf="http://www.w3.org/1999/02/22-rdf-syntax-ns#"
   xmlns:svg="http://www.w3.org/2000/svg"
   xmlns="http://www.w3.org/2000/svg"
   xmlns:sodipodi="http://sodipodi.sourceforge.net/DTD/sodipodi-0.dtd"
   xmlns:inkscape="http://www.inkscape.org/namespaces/inkscape"
   version="1.1"
   id="Layer_1"
   x="0px"
   y="0px"
   viewBox="0 0 512 512"
   style="enable-background:new 0 0 512 512;"
   xml:space="preserve"
   sodipodi:docname="forest-3.svg"
   inkscape:version="1.0.2 (e86c870879, 2021-01-15)"><metadata
   id="metadata1672"><rdf:RDF><cc:Work
       rdf:about=""><dc:format>image/svg+xml</dc:format><dc:type
         rdf:resource="http://purl.org/dc/dcmitype/StillImage" /></cc:Work></rdf:RDF></metadata><defs
   id="defs1670" /><sodipodi:namedview
   pagecolor="#ffffff"
   bordercolor="#666666"
   borderopacity="1"
   objecttolerance="10"
   gridtolerance="10"
   guidetolerance="10"
   inkscape:pageopacity="0"
   inkscape:pageshadow="2"
   inkscape:window-width="1070"
   inkscape:window-height="895"
   id="namedview1668"
   showgrid="false"
   inkscape:zoom="1.4277344"
   inkscape:cx="255.29959"
   inkscape:cy="252.49795"
   inkscape:window-x="68"
   inkscape:window-y="81"
   inkscape:window-maximized="0"
   inkscape:current-layer="Layer_1" />
<g
   id="g1635"
   style="fill:#280b0b">
	<g
   id="g1633"
   style="fill:#280b0b">
		<g
   id="g1631"
   style="fill:#280b0b">
			<path
   d="M222.883,285.922c1.541,3.07,4.638,4.842,7.853,4.842c1.325,0,2.67-0.302,3.935-0.937     c4.333-2.176,6.081-7.454,3.904-11.786l-19.699-39.213c-2.176-4.335-7.456-6.081-11.786-3.905     c-4.333,2.176-6.081,7.454-3.904,11.786L222.883,285.922z"
   id="path1595"
   style="fill:#280b0b" />
			<path
   d="M218.356,351.106c-3.217-3.629-8.767-3.96-12.394-0.743c-3.628,3.218-3.96,8.767-0.742,12.395l25.726,29.005     c1.735,1.956,4.148,2.954,6.572,2.954c2.071,0,4.151-0.729,5.823-2.211c3.628-3.218,3.96-8.767,0.742-12.395L218.356,351.106z"
   id="path1597"
   style="fill:#280b0b" />
			<path
   d="M248.612,125.563c-3.697-3.137-9.237-2.686-12.375,1.011l-29.107,34.285c-3.139,3.696-2.686,9.238,1.01,12.375     c1.652,1.401,3.67,2.086,5.679,2.086c2.488,0,4.96-1.051,6.698-3.098l29.107-34.285     C252.762,134.242,252.309,128.702,248.612,125.563z"
   id="path1599"
   style="fill:#280b0b" />
			<path
   d="M490.616,167.024c-20.462-83.559-50.169-125.926-88.294-125.926c-24.827,0-46.208,18.174-63.738,54.086     c-18.991-55.161-43.305-83.045-72.571-83.045c-32.229,0-58.453,33.813-78.176,100.639C168.107,45.974,141.88,12.14,109.678,12.14     c-38.123,0-67.846,47.307-88.342,140.609C5.215,226.133,0,303.951,0,330.139c0,46.937,29.641,87.076,71.186,102.698v58.243     c0,4.85,3.931,8.78,8.78,8.78h59.425c4.849,0,8.78-3.93,8.78-8.78v-58.209c14.845-5.556,28.403-14.323,39.714-25.84     c11.085,11.262,24.577,20.144,39.636,25.807v58.243c0,4.85,3.931,8.78,8.78,8.78h59.425c4.849,0,8.78-3.93,8.78-8.78v-58.243     c10.787-4.056,20.77-9.763,29.642-16.816c8.862,7.045,18.675,12.634,29.114,16.612v58.448c0,4.85,3.931,8.78,8.78,8.78h59.993     c4.849,0,8.78-3.93,8.78-8.78v-58.244C482.359,417.214,512,377.076,512,330.139C512,300.835,506.195,230.638,490.616,167.024z      M130.611,482.3H88.746v-44.497c6.778,1.315,13.775,2.012,20.932,2.012c7.098,0,14.102-0.682,20.933-2.003V482.3z      M109.678,422.255c-50.794,0-92.118-41.323-92.118-92.116c0-24.548,5.269-102.348,20.927-173.623     C56.453,74.738,81.735,29.7,109.678,29.7c26.825,0,51.35,41.85,69.152,117.873c-0.39,1.711-0.777,3.434-1.16,5.177     c-9.124,41.537-14.754,84.493-17.923,118.704c-0.104-0.904-0.346-1.809-0.749-2.681l-17.169-37.14     c-2.035-4.401-7.252-6.319-11.654-4.285c-4.402,2.035-6.319,7.252-4.285,11.654l17.169,37.14     c1.483,3.208,4.658,5.097,7.976,5.097c1.233,0,2.485-0.262,3.68-0.812c2.372-1.097,4.013-3.12,4.713-5.439     c-2.195,24.587-3.092,44.303-3.092,55.152c0,11.38,1.743,22.36,4.975,32.689c-2.968-0.582-6.155,0.378-8.294,2.814l-25.755,29.34     c-3.2,3.644-2.838,9.192,0.805,12.392c1.667,1.463,3.732,2.181,5.789,2.181c2.44,0,4.867-1.01,6.601-2.988l25.755-29.339     c0.171-0.195,0.327-0.398,0.478-0.603c2.787,5.931,6.085,11.577,9.845,16.872C159.159,411.843,135.138,422.255,109.678,422.255z      M286.945,482.3H245.08v-44.497c6.778,1.315,13.774,2.012,20.932,2.012c7.158,0,14.154-0.698,20.933-2.012V482.3z      M266.013,422.255c-50.794,0-92.118-41.323-92.118-92.115c0-24.548,5.269-102.348,20.927-173.623     C212.787,74.738,238.07,29.7,266.013,29.7c27.943,0,53.225,45.039,71.19,126.817c15.658,71.275,20.927,149.075,20.927,173.623     C358.13,380.932,316.806,422.255,266.013,422.255z M423.254,482.3h-42.433V437.68c7.024,1.398,14.218,2.135,21.5,2.135     c7.158,0,14.154-0.698,20.933-2.012V482.3z M402.322,422.255c-20.044,0-39.324-6.474-55.194-18.372     c17.736-19.491,28.562-45.377,28.562-73.744c0-12.132-1.12-35.349-3.924-64.068c0.869,1.871,2.387,3.448,4.424,4.342     c1.148,0.505,2.346,0.743,3.526,0.743c3.377,0,6.599-1.961,8.044-5.252l15.982-36.397c1.95-4.44-0.069-9.621-4.509-11.57     c-4.44-1.949-9.621,0.069-11.57,4.51l-15.982,36.397c-0.214,0.486-0.371,0.982-0.492,1.481     c-3.31-32.148-8.674-70.427-16.834-107.577c-2.477-11.276-5.09-21.874-7.835-31.804c11.289-29.043,29.876-62.286,55.803-62.286     c28.167,0,53.466,39.968,71.237,112.543c14.402,58.81,20.88,128.347,20.88,158.939     C494.44,380.932,453.116,422.255,402.322,422.255z"
   id="path1601"
   style="fill:#280b0b" />
			<path
   d="M56.918,239.935c1.66,2.687,4.534,4.164,7.476,4.164c1.576,0,3.17-0.424,4.609-1.314c4.124-2.551,5.4-7.962,2.851-12.085     l-17.937-29.008c-2.55-4.124-7.959-5.4-12.085-2.851c-4.124,2.551-5.4,7.962-2.851,12.085L56.918,239.935z"
   id="path1603"
   style="fill:#280b0b" />
			<path
   d="M151.037,146.295c1.683,0,3.386-0.483,4.888-1.493c4.025-2.704,5.097-8.159,2.392-12.183l-21.852-32.532     c-2.703-4.026-8.16-5.098-12.184-2.393c-4.025,2.704-5.097,8.159-2.392,12.183l21.852,32.532     C145.434,144.932,148.21,146.295,151.037,146.295z"
   id="path1605"
   style="fill:#280b0b" />
			<path
   d="M66.567,312.244l-26.536,28.397c-3.311,3.542-3.122,9.099,0.42,12.41c1.693,1.583,3.846,2.366,5.993,2.366     c2.346,0,4.687-0.935,6.418-2.785l26.536-28.397c3.311-3.542,3.122-9.099-0.42-12.41     C75.435,308.515,69.879,308.702,66.567,312.244z"
   id="path1607"
   style="fill:#280b0b" />
			<path
   d="M98.22,68.306c-4.473-1.874-9.617,0.228-11.494,4.699l-17.937,42.744c-1.877,4.471,0.227,9.617,4.698,11.494     c1.11,0.465,2.262,0.686,3.394,0.686c3.431,0,6.689-2.024,8.1-5.385L102.918,79.8C104.795,75.329,102.691,70.184,98.22,68.306z"
   id="path1609"
   style="fill:#280b0b" />
			<path
   d="M348.541,346.359c-3.319-3.534-8.876-3.709-12.412-0.387l-28.345,26.627c-3.534,3.32-3.708,8.876-0.388,12.41     c1.728,1.839,4.061,2.769,6.401,2.769c2.155,0,4.315-0.789,6.01-2.381l28.345-26.627     C351.688,355.448,351.861,349.892,348.541,346.359z"
   id="path1611"
   style="fill:#280b0b" />
			<path
   d="M476.856,229.053c-4.108-2.579-9.527-1.338-12.105,2.766l-21.072,33.56c-2.579,4.107-1.34,9.527,2.766,12.105     c1.451,0.911,3.066,1.345,4.66,1.345c2.921,0,5.777-1.456,7.444-4.113l21.072-33.56     C482.2,237.051,480.962,231.63,476.856,229.053z"
   id="path1613"
   style="fill:#280b0b" />
			<path
   d="M451.808,340.371c-2.313-4.262-7.642-5.845-11.906-3.53c-4.262,2.313-5.842,7.642-3.53,11.905l19.902,36.678     c1.591,2.931,4.609,4.594,7.725,4.594c1.414,0,2.849-0.342,4.179-1.064c4.262-2.313,5.842-7.642,3.53-11.905L451.808,340.371z"
   id="path1615"
   style="fill:#280b0b" />
			<path
   d="M301.43,106.982c1.875,0,3.765-0.598,5.363-1.832c3.836-2.965,4.543-8.479,1.578-12.317L285.19,62.839     c-2.964-3.836-8.48-4.542-12.316-1.579c-3.836,2.965-4.543,8.479-1.578,12.317l23.181,29.994     C296.207,105.809,298.804,106.982,301.43,106.982z"
   id="path1617"
   style="fill:#280b0b" />
			<path
   d="M398.276,365.022c-3.689-3.147-9.232-2.705-12.378,0.985L367.1,388.054c-3.147,3.69-2.705,9.232,0.985,12.378     c1.653,1.409,3.678,2.099,5.693,2.099c2.482,0,4.948-1.048,6.685-3.084l18.799-22.048     C402.406,373.709,401.966,368.168,398.276,365.022z"
   id="path1619"
   style="fill:#280b0b" />
			<path
   d="M381.321,112.23c-1.656-4.557-6.693-6.908-11.251-5.253c-4.557,1.655-6.909,6.693-5.254,11.25l13.303,36.61     c1.296,3.568,4.665,5.783,8.253,5.783c0.996,0,2.008-0.17,2.997-0.53c4.559-1.655,6.911-6.693,5.254-11.25L381.321,112.23z"
   id="path1621"
   style="fill:#280b0b" />
			<path
   d="M463.58,162.417c-2.924-3.867-8.43-4.632-12.298-1.708l-29.657,22.421c-3.868,2.924-4.632,8.43-1.708,12.299     c1.727,2.283,4.353,3.485,7.01,3.485c1.844,0,3.704-0.578,5.288-1.777l29.657-22.421     C465.74,171.792,466.505,166.285,463.58,162.417z"
   id="path1623"
   style="fill:#280b0b" />
			<path
   d="M295.407,175.295l21.696-26.029c3.105-3.725,2.602-9.261-1.123-12.366c-3.724-3.103-9.261-2.601-12.366,1.123     l-21.696,26.029c-3.105,3.725-2.602,9.261,1.123,12.366c1.641,1.369,3.635,2.036,5.617,2.036     C291.173,178.453,293.671,177.377,295.407,175.295z"
   id="path1625"
   style="fill:#280b0b" />
			<path
   d="M302.411,254.661l29.7-37.787c2.997-3.813,2.336-9.333-1.477-12.328c-3.812-2.997-9.333-2.337-12.328,1.477l-29.7,37.787     c-2.997,3.813-2.336,9.333,1.477,12.328c1.609,1.264,3.521,1.878,5.42,1.878C298.104,258.015,300.68,256.866,302.411,254.661z"
   id="path1627"
   style="fill:#280b0b" />
			<path
   d="M319.225,333.421c1.421,0,2.864-0.345,4.199-1.075c4.257-2.323,5.823-7.657,3.499-11.914l-17.715-32.453     c-2.323-4.255-7.656-5.825-11.914-3.499c-4.257,2.323-5.823,7.657-3.499,11.914l17.715,32.453     C313.104,331.768,316.115,333.421,319.225,333.421z"
   id="path1629"
   style="fill:#280b0b" />
		</g>
	</g>
</g>
<g
   id="g1637">
</g>
<g
   id="g1639">
</g>
<g
   id="g1641">
</g>
<g
   id="g1643">
</g>
<g
   id="g1645">
</g>
<g
   id="g1647">
</g>
<g
   id="g1649">
</g>
<g
   id="g1651">
</g>
<g
   id="g1653">
</g>
<g
   id="g1655">
</g>
<g
   id="g1657">
</g>
<g
   id="g1659">
</g>
<g
   id="g1661">
</g>
<g
   id="g1663">
</g>
<g
   id="g1665">
</g>
<path
   style="fill:#008080;stroke-width:0.70041"
   d="M 93.893404,420.55869 C 58.399203,413.8837 29.920438,387.53151 20.956755,353.06837 17.458086,339.61686 17.185155,327.12179 19.654983,293.47196 25.750102,210.4298 41.149689,131.27323 60.312266,84.486397 87.594431,17.875011 123.41605,12.175831 152.25829,69.857891 c 8.91544,17.830142 18.81111,46.547279 24.57146,71.306119 l 1.47389,6.335 -3.83638,19.22998 c -5.78908,29.01791 -12.43186,73.86871 -14.13548,95.44008 -0.26797,3.39299 -0.73369,5.91447 -1.03494,5.60328 -0.30126,-0.31118 -4.25579,-8.60299 -8.78786,-18.42625 -4.53206,-9.82325 -8.67181,-18.54247 -9.19942,-19.37605 -1.49795,-2.36656 -5.51238,-3.95785 -8.854,-3.50965 -2.11848,0.28415 -3.48011,1.04228 -5.15555,2.8705 -4.03204,4.39971 -3.61702,6.10631 7.08109,29.11824 7.89625,16.98504 9.62801,20.19459 11.62094,21.53762 3.167,2.13424 6.84014,2.0549 10.19264,-0.22017 l 2.65008,-1.79839 -0.44245,5.12534 c -2.47054,28.61897 -2.86068,55.36014 -0.95359,65.36063 0.66117,3.46703 1.63712,7.93009 2.16879,9.91791 l 0.96667,3.61421 -2.22046,0.41656 c -1.22126,0.22911 -2.92342,0.90893 -3.78259,1.51072 -1.53962,1.07839 -24.9168,27.30268 -27.98195,31.38988 -1.87664,2.50237 -2.11025,7.16923 -0.51345,10.25709 1.90783,3.68936 7.59973,5.3088 11.85096,3.37181 0.97504,-0.44426 7.81441,-7.70245 15.19862,-16.12933 l 13.42582,-15.32158 2.70841,4.99142 c 1.48962,2.74529 3.64282,6.34955 4.78489,8.00949 l 2.07648,3.01806 -4.19873,3.88728 c -11.18967,10.35965 -25.42472,18.01896 -40.60954,21.85032 -6.22461,1.57057 -9.22674,1.89378 -19.60718,2.11086 -8.86952,0.18549 -13.795208,-0.0329 -17.822056,-0.79018 z M 50.263322,354.90138 c 2.581688,-1.12597 29.813364,-30.30896 31.121111,-33.35113 2.874111,-6.68597 -3.679347,-13.93827 -10.850285,-12.00734 -2.304166,0.62046 -4.894455,3.03239 -15.979926,14.87963 -16.851125,18.0091 -17.082266,18.30287 -17.082266,21.71128 0,7.07607 6.482251,11.51918 12.791366,8.76756 z m 20.629172,-113.5307 c 1.935709,-2.11223 2.300392,-3.04602 2.300392,-5.89031 0,-3.11368 -0.744995,-4.59147 -9.4505,-18.74626 -5.197775,-8.45137 -10.403294,-16.23288 -11.567821,-17.29225 -3.80872,-3.4648 -11.325283,-2.22303 -13.640137,2.25341 -2.422294,4.6842 -1.807065,6.31384 9.01445,23.87782 11.192953,18.16686 12.207729,19.22219 17.915436,18.63147 2.472431,-0.25589 3.609783,-0.84966 5.42818,-2.83388 z m 85.004536,-96.17985 c 2.45205,-1.44846 4.14675,-4.79102 4.14675,-8.17889 0,-2.07958 -2.04231,-5.56899 -11.95026,-20.41777 -12.54356,-18.798691 -14.22761,-20.639591 -18.8678,-20.625002 -3.28757,0.01034 -5.58437,1.273137 -7.50839,4.128202 -3.24354,4.81309 -2.81967,5.86919 10.22664,25.48055 6.50297,9.77534 12.69158,18.45611 13.75245,19.2906 2.38748,1.87799 7.30406,2.03334 10.20061,0.32231 z m -72.868743,-19.5457 c 1.373213,-1.38828 4.888599,-8.93127 11.208024,-24.04913 5.064002,-12.114542 9.365829,-23.003412 9.559589,-24.197489 0.45844,-2.825002 -1.28839,-6.933488 -3.58881,-8.440783 -4.801143,-3.145824 -10.993352,-1.46729 -13.5845,3.682374 -3.042995,6.047677 -19.032987,45.021158 -19.032987,46.390378 0,2.72736 1.992325,6.29686 4.335417,7.76745 3.361296,2.10965 8.392957,1.58723 11.103267,-1.1528 z"
   id="path1674" /><path
   style="fill:#00ff00;stroke-width:0.70041"
   d="m 250.39672,420.53267 c -18.29937,-3.22886 -35.25901,-12.10122 -48.72714,-25.49139 -10.94875,-10.88538 -18.39281,-22.9735 -22.97973,-37.31589 -3.79629,-11.87023 -4.49601,-18.272 -4.03732,-36.93743 1.32014,-53.72113 11.72754,-129.92433 24.92333,-182.4893 16.94572,-67.502627 39.77599,-105.902145 64.18009,-107.948096 35.64774,-2.988579 66.91982,67.842363 84.62713,191.679536 5.63769,39.42757 10.31466,96.80002 9.22117,113.11627 -1.58831,23.69958 -10.94352,44.00096 -28.02002,60.80513 -12.60917,12.40809 -30.50278,21.50862 -48.36946,24.60029 -7.78623,1.34733 -23.12771,1.33782 -30.81805,-0.0191 z m -8.68938,-26.58583 c 3.95474,-2.04507 5.87859,-7.3836 4.19916,-11.65227 -0.8548,-2.17267 -26.84181,-31.41055 -29.29635,-32.9612 -3.00029,-1.89542 -8.0103,-1.62529 -10.62253,0.57275 -2.69782,2.27008 -3.95421,6.4652 -2.89627,9.67079 0.83483,2.52957 25.96626,31.37248 29.51915,33.87863 2.61205,1.8425 6.11779,2.03183 9.09684,0.4913 z m 76.62919,-7.21553 c 2.78634,-1.71168 30.57918,-27.83393 31.66874,-29.76519 0.46789,-0.82931 0.86187,-2.994 0.87552,-4.81042 0.0438,-5.83337 -4.89834,-9.76368 -10.86891,-8.6436 -1.8548,0.34796 -5.83576,3.68996 -18.05894,15.16042 -8.62381,8.09273 -16.03847,15.50158 -16.47704,16.46412 -3.60389,7.90967 5.49933,16.1168 12.86063,11.59467 z m 6.5534,-55.10991 c 2.46388,-2.07322 3.92797,-5.91119 3.27851,-8.5943 -0.43426,-1.79406 -14.88721,-29.03788 -18.38647,-34.6585 -1.94554,-3.125 -5.36374,-5.39652 -8.12624,-5.40018 -3.93333,-0.005 -7.84208,3.1314 -8.92806,7.16446 -0.62584,2.32415 -0.49276,3.2194 0.94381,6.34931 3.94581,8.59693 18.24742,33.89427 19.9756,35.33375 2.77601,2.31228 8.37889,2.21533 11.24285,-0.19454 z m -89.03648,-42.08021 c 2.85567,-1.80807 3.88529,-4.17369 3.55421,-8.16608 -0.2529,-3.0496 -2.12374,-7.22212 -10.99102,-24.51314 -11.71252,-22.83919 -11.77973,-22.9249 -17.97857,-22.9249 -2.75462,0 -3.61528,0.35861 -5.58283,2.32616 -1.41881,1.4188 -2.5218,3.36903 -2.82773,4.99979 -0.46449,2.47595 0.29522,4.2748 10.27581,24.33094 5.92757,11.91152 11.44536,22.28525 12.26177,23.05272 2.91075,2.73627 7.77116,3.12142 11.28836,0.89451 z m 63.10984,-31.85609 c 1.67276,-0.58313 5.54784,-5.01747 16.20905,-18.54838 20.61597,-26.16524 18.92342,-23.68978 18.92342,-27.67671 0,-4.63102 -3.06337,-8.22756 -7.51662,-8.82487 -5.41922,-0.72687 -6.11919,-0.073 -23.16156,21.63724 -8.74451,11.1396 -16.11335,20.78672 -16.37519,21.43805 -1.67965,4.17806 0.56096,9.98269 4.51723,11.70258 2.77091,1.20459 4.54198,1.26968 7.40367,0.27209 z m -5.15149,-80.59826 c 2.61633,-2.058 24.14006,-27.83915 24.93833,-29.87115 1.63579,-4.16393 0.0109,-9.05634 -3.77456,-11.36443 -2.54186,-1.54986 -4.88182,-1.72236 -8.108,-0.59771 -3.09287,1.07817 -26.47616,29.17033 -27.11493,32.57525 -0.63566,3.38833 0.16254,5.76408 2.8342,8.43574 2.0248,2.0248 2.8087,2.34011 5.81775,2.34011 2.50642,0 4.01651,-0.42388 5.40721,-1.51781 z m -76.43577,-2.24694 c 1.59779,-0.6676 6.90987,-6.3737 17.31266,-18.59682 15.36021,-18.04802 17.45905,-20.89735 17.45905,-23.70198 0,-7.37473 -9.14618,-12.09084 -14.58043,-7.51822 -3.38037,2.84439 -31.21392,35.94149 -32.21609,38.30841 -1.76992,4.18019 0.17976,9.1988 4.42169,11.38176 2.60032,1.33816 4.62326,1.37192 7.60312,0.12685 z m 88.72624,-68.73958 c 2.66577,-1.37852 4.17954,-4.38807 4.17954,-8.309433 0,-2.975637 -0.5655,-3.87319 -10.94385,-17.36994 -15.83904,-20.598225 -15.34761,-20.044376 -18.55077,-20.906898 -7.52152,-2.025336 -14.08507,5.641003 -10.65579,12.446152 2.04849,4.065086 25.12205,33.437759 26.96227,34.322999 2.35601,1.13338 6.63107,1.04659 9.0086,-0.18288 z"
   id="path1676" /><path
   style="fill:#008000;stroke-width:0.70041"
   d="m 386.69429,420.51814 c -6.98609,-1.17073 -18.51644,-4.91803 -24.70223,-8.02806 -5.04194,-2.53496 -13.88809,-8.1101 -13.88809,-8.75275 0,-0.23525 1.37852,-2.05392 3.06338,-4.04149 9.98608,-11.7802 17.82778,-27.6502 21.84174,-44.20321 3.65674,-15.0799 3.80583,-32.54216 0.61524,-72.06045 -0.61689,-7.64062 -0.96535,-14.0483 -0.77437,-14.23928 0.19098,-0.19098 1.1874,0.20325 2.21426,0.87608 2.61836,1.71562 7.35988,1.58395 9.97328,-0.27695 2.06976,-1.4738 5.1413,-7.8706 16.83697,-35.06472 3.8276,-8.89972 3.80269,-11.71415 -0.1356,-15.32333 -2.11432,-1.93763 -3.00908,-2.27676 -6.007,-2.27676 -5.86383,0 -7.03537,1.63887 -16.15891,22.60471 -4.32055,9.92863 -7.95526,17.95235 -8.07711,17.8305 -0.12185,-0.12186 -0.88139,-5.88139 -1.68785,-12.79897 -4.55042,-39.03191 -11.28546,-77.39299 -19.17123,-109.19431 l -3.70676,-14.94845 4.29677,-9.7057 c 8.0139,-18.102096 14.69636,-28.593608 24.5228,-38.50097 5.63724,-5.683664 8.06225,-7.586693 12.27778,-9.635019 6.12394,-2.975619 12.23455,-4.267377 17.12059,-3.619221 34.58674,4.588093 63.45316,67.02807 79.8293,172.67605 7.16058,46.19529 10.64707,96.51337 7.83131,113.02376 -2.24323,13.15336 -7.12738,25.34496 -14.76834,36.86407 -4.47967,6.75331 -17.42097,19.69461 -24.17428,24.17428 -11.20535,7.43282 -23.87874,12.50705 -36.68819,14.68937 -7.66563,1.30597 -22.47818,1.27236 -30.48346,-0.0692 z m -8.83081,-18.6064 c 1.53432,-0.69908 16.93207,-18.04225 21.89575,-24.66216 1.87663,-2.50279 2.11023,-7.16963 0.51346,-10.25746 -1.90871,-3.69102 -7.59985,-5.30874 -11.85522,-3.36987 -1.51168,0.68877 -17.04228,18.16748 -21.92773,24.67827 -1.79924,2.39784 -2.11208,7.42631 -0.62837,10.10009 2.09272,3.77124 7.77979,5.43495 12.00211,3.51113 z m 90.734,-12.84562 c 2.64869,-1.36969 4.18501,-4.39299 4.15836,-8.18318 -0.0179,-2.54169 -1.69123,-6.07121 -10.72568,-22.62302 -11.45823,-20.99237 -12.8398,-22.76334 -17.75812,-22.76334 -5.01651,0 -9.30924,4.17286 -9.31456,9.05445 -0.004,3.6433 21.11899,42.4357 24.09491,44.25039 2.6176,1.59618 6.74875,1.71074 9.54509,0.2647 z M 456.0189,277.66024 c 1.19886,-0.60284 5.71547,-7.16939 13.4829,-19.60231 10.00371,-16.01242 11.68014,-19.09475 11.68014,-21.47537 0,-5.41331 -3.71352,-8.94918 -9.39879,-8.94918 -2.69364,0 -3.61932,0.37751 -5.58175,2.27633 -2.65277,2.56678 -23.26959,35.26709 -23.95375,37.993 -1.12466,4.481 1.81693,9.52382 6.292,10.78651 2.3944,0.6756 4.72779,0.35458 7.47925,-1.02898 z m -9.42815,-90.8405 c 8.79691,-6.65325 16.73946,-13.19333 17.65012,-14.53352 4.57535,-6.73339 -2.55507,-15.71549 -10.3451,-13.03161 -2.81886,0.97117 -33.07629,23.5479 -34.73741,25.91948 -0.57921,0.82694 -1.01335,3.06041 -1.01335,5.21322 0,3.34953 0.2636,4.03005 2.38139,6.14785 2.12975,2.12975 2.78763,2.38139 6.22568,2.38139 h 3.8443 z m -56.1353,-26.90588 c 3.09442,-1.47564 5.61412,-6.19363 4.94202,-9.25367 -0.24748,-1.12678 -3.56844,-10.66549 -7.3799,-21.19712 -8.01142,-22.13674 -8.57125,-23.00069 -14.90424,-23.00069 -5.62665,0 -8.89992,3.20317 -8.89992,8.70933 0,2.95403 13.47354,40.65913 15.23678,42.63944 1.46591,1.64638 4.83394,3.21796 6.97748,3.25583 0.85369,0.0151 2.66619,-0.50383 4.02778,-1.15312 z"
   id="path1678" /><path
   style="fill:#501616;stroke-width:0.70041"
   d="m 381.37346,460.13485 v -21.7475 l 4.37757,0.56009 c 5.72038,0.73189 27.76321,0.72143 32.91928,-0.0156 l 4.02736,-0.57571 v 21.76312 21.76312 h -20.6621 -20.66211 z"
   id="path1680" /><path
   style="fill:#501616;stroke-width:0.70041"
   d="m 245.14364,460.13485 v -21.7475 l 4.37756,0.56009 c 5.72039,0.73189 27.76321,0.72143 32.91929,-0.0156 l 4.02736,-0.57571 v 21.76312 21.76312 h -20.6621 -20.66211 z"
   id="path1682" /><path
   style="fill:#501616;stroke-width:0.70041"
   d="m 88.95212,460.13485 v -21.7475 l 4.377565,0.56009 c 5.720389,0.73189 27.763215,0.72143 32.919285,-0.0156 l 4.02736,-0.57571 v 21.76312 21.76312 h -20.6621 -20.66211 z"
   id="path1684" /></svg>
