<?xml version="1.0" encoding="UTF-8" standalone="no"?>
<svg
   xmlns:dc="http://purl.org/dc/elements/1.1/"
   xmlns:cc="http://creativecommons.org/ns#"
   xmlns:rdf="http://www.w3.org/1999/02/22-rdf-syntax-ns#"
   xmlns:svg="http://www.w3.org/2000/svg"
   xmlns="http://www.w3.org/2000/svg"
   xmlns:sodipodi="http://sodipodi.sourceforge.net/DTD/sodipodi-0.dtd"
   xmlns:inkscape="http://www.inkscape.org/namespaces/inkscape"
   version="1.1"
   id="Capa_1"
   x="0px"
   y="0px"
   viewBox="0 0 460 460"
   style="enable-background:new 0 0 460 460;"
   xml:space="preserve"
   sodipodi:docname="fuel.svg"
   inkscape:version="1.0.2 (e86c870879, 2021-01-15)"><metadata
   id="metadata41"><rdf:RDF><cc:Work
       rdf:about=""><dc:format>image/svg+xml</dc:format><dc:type
         rdf:resource="http://purl.org/dc/dcmitype/StillImage" /></cc:Work></rdf:RDF></metadata><defs
   id="defs39" /><sodipodi:namedview
   pagecolor="#ffffff"
   bordercolor="#666666"
   borderopacity="1"
   objecttolerance="10"
   gridtolerance="10"
   guidetolerance="10"
   inkscape:pageopacity="0"
   inkscape:pageshadow="2"
   inkscape:window-width="1920"
   inkscape:window-height="1053"
   id="namedview37"
   showgrid="false"
   inkscape:zoom="1.1317298"
   inkscape:cx="289.30512"
   inkscape:cy="279.41308"
   inkscape:window-x="0"
   inkscape:window-y="27"
   inkscape:window-maximized="1"
   inkscape:current-layer="Capa_1" />
<g
   id="XMLID_504_">
	<path
   id="XMLID_893_"
   d="M420.35,132.922l-78.879-100.96c-2.47-3.162-7.036-3.72-10.195-1.252   c-3.162,2.47-3.721,7.034-1.252,10.195l7.542,9.653l-23.401,18.283L267.618,9.106C263.108,3.319,256.313,0,248.976,0H74.701   C54.525,0,38.11,16.414,38.11,36.591V423.41c0,20.176,16.414,36.59,36.59,36.59h286.588c20.176,0,36.59-16.414,36.59-36.59V184.395   c0-5.236-1.772-10.395-4.991-14.526l-15.032-19.291l23.506-18.365l7.542,9.653c1.433,1.833,3.569,2.792,5.728,2.792   c1.564,0,3.14-0.503,4.467-1.54C422.26,140.648,422.82,136.083,420.35,132.922z M381.429,178.798   c1.24,1.592,1.923,3.58,1.923,5.598V423.41c0,12.166-9.898,22.064-22.064,22.064H74.7c-12.166,0-22.064-9.898-22.064-22.064V36.591   c0-12.166,9.898-22.064,22.065-22.064h174.275c2.828,0,5.445,1.279,7.184,3.509L381.429,178.798z M392.418,120.767l-23.491,18.354   L323.094,80.3l23.416-18.295L392.418,120.767z" />
	<path
   id="XMLID_899_"
   d="M274.606,99.606c1.23-2.461,0.965-5.405-0.686-7.606L240.51,47.453c-1.371-1.829-3.525-2.905-5.811-2.905   H89.92c-4.012,0-7.263,3.252-7.263,7.263v44.547c0,4.011,3.251,7.263,7.263,7.263H268.11   C270.861,103.621,273.375,102.067,274.606,99.606z M97.183,89.095V59.074h133.884l22.516,30.021H97.183z" />
	<path
   id="XMLID_902_"
   d="M272.138,251.523c-2.119-0.821-4.503-0.606-6.438,0.589l-18.721,11.54   c-3.02-23.109-13.563-73.368-49.212-95.988c-2.985-1.893-6.899-1.364-9.273,1.255c-2.974,3.281-72.765,81.2-66.32,154.539   c2.957,33.643,19.114,58.921,45.494,71.177c10.565,4.909,22.021,7.32,33.583,7.32c17.41,0,35.051-5.474,50.196-16.132   c19.294-13.579,48.203-48.462,25.048-129.523C275.87,254.113,274.258,252.345,272.138,251.523z M212.251,331.835   c2.673,1.368,5.915,0.95,8.154-1.053l19.158-17.148c7.966,38.537-5.505,55.03-14.854,61.61   c-13.06,9.192-30.235,11.072-43.753,4.792c-13.485-6.265-21.778-19.585-23.354-37.506c-3.097-35.238,25.428-74.518,36.67-88.496   c15.723,16.563,15.634,55.648,14.066,70.569C208.021,327.59,209.577,330.465,212.251,331.835z M248.743,369.383   c7.731-14.23,11.832-36.611,1.951-71.205c-0.688-2.405-2.565-4.288-4.969-4.983c-2.404-0.693-4.995-0.102-6.859,1.566   l-15.361,13.75c-0.159-21.507-4.046-56.65-26.295-70.768c-2.984-1.894-6.9-1.365-9.273,1.255   c-2.011,2.218-49.191,54.897-44.805,104.802c0.233,2.647,0.6,5.209,1.067,7.702c-4.024-8.548-6.593-18.391-7.553-29.318   c-5.027-57.184,43.66-120.771,58.441-138.625c34.946,27.712,38.507,92.054,38.54,92.727c0.122,2.567,1.593,4.879,3.866,6.078   c2.274,1.198,5.011,1.107,7.2-0.242l20.31-12.52C279.228,327.595,263.29,356.037,248.743,369.383z" />
</g>
<g
   id="g6">
</g>
<g
   id="g8">
</g>
<g
   id="g10">
</g>
<g
   id="g12">
</g>
<g
   id="g14">
</g>
<g
   id="g16">
</g>
<g
   id="g18">
</g>
<g
   id="g20">
</g>
<g
   id="g22">
</g>
<g
   id="g24">
</g>
<g
   id="g26">
</g>
<g
   id="g28">
</g>
<g
   id="g30">
</g>
<g
   id="g32">
</g>
<g
   id="g34">
</g>
<path
   style="fill:#ff0000;stroke-width:0.883603"
   d="m 187.78321,381.83812 c -21.70589,-5.83703 -33.59564,-28.89597 -28.87567,-56.00133 3.50704,-20.13992 13.78576,-41.77466 30.81996,-64.87021 l 4.48142,-6.07605 1.69817,2.09715 c 2.92036,3.6065 6.71572,11.91243 8.51135,18.62663 2.95712,11.05725 3.8884,20.01809 3.82882,36.84118 -0.0564,15.92901 -0.016,16.29556 2.02325,18.33477 1.39506,1.39506 3.10311,2.08081 5.18284,2.08081 3.29287,0 3.69282,-0.28349 16.49903,-11.69447 3.68967,-3.28768 6.92532,-5.9776 7.19033,-5.9776 0.265,0 0.97747,4.04608 1.58326,8.99129 3.76431,30.72931 -7.7951,51.41803 -32.23528,57.69384 -6.48728,1.66582 -14.40724,1.64822 -20.70748,-0.046 z"
   id="path43" /><path
   style="fill:#f2f2f2;stroke-width:0.883603"
   d="M 69.282219,444.26308 C 62.931482,442.33127 57.044594,437.1202 54.597953,431.26456 53.579361,428.82672 53.384478,396.33904 53.391715,230.18058 l 0.0086,-198.176379 2.086391,-4.48063 c 1.147515,-2.464347 3.628765,-5.758383 5.513888,-7.32008 6.838943,-5.665602 3.19249,-5.478511 101.762046,-5.221163 l 89.40199,0.233414 3.01619,3.092611 c 2.35975,2.419536 101.90519,129.741377 123.18302,157.555067 l 4.60318,6.01714 v 122.16881 c 0,137.2587 0.487,127.34476 -6.60377,134.43553 -7.14389,7.14388 5.74896,6.61311 -158.56652,6.52782 -80.4649,-0.0418 -147.296442,-0.37911 -148.514543,-0.74964 z M 210.22264,401.75913 c 14.08863,-1.59813 26.86602,-6.11718 38.4091,-13.58436 31.81276,-20.57957 43.46791,-59.98262 33.08573,-111.8543 -5.74371,-28.6969 -7.50014,-30.08523 -24.67757,-19.50599 l -9.93456,6.11852 -0.6142,-5.45581 c -0.85959,-7.63571 -6.84512,-30.61543 -10.11109,-38.81869 -8.55553,-21.48923 -19.26914,-37.06041 -32.44011,-47.14856 -5.64039,-4.3202 -7.31223,-5.1579 -10.29376,-5.1579 -3.15372,0 -4.00803,0.50153 -7.49146,4.39794 -6.80935,7.61663 -22.48972,29.04304 -29.61137,40.46237 -34.49328,55.30896 -43.82964,105.44386 -26.91987,144.55589 4.21579,9.75107 8.8202,16.32857 17.37274,24.81739 8.75561,8.69036 16.81337,13.60138 28.95894,17.6498 11.9135,3.97107 21.56995,4.96404 34.26748,3.5237 z m 62.54881,-299.51925 c 2.74747,-2.16115 3.79273,-6.215487 2.31452,-8.977529 -2.27642,-4.253539 -35.31282,-47.526989 -36.95441,-48.405538 -1.16177,-0.621759 -25.89196,-0.92397 -75.60928,-0.92397 -78.378356,0 -77.880755,-0.02516 -79.431416,4.015802 -0.301883,0.786694 -0.548878,12.748116 -0.548878,26.580938 v 25.150585 l 2.168844,2.168842 2.168844,2.16885 H 178.6954 c 90.66313,0 91.84411,-0.0224 94.07605,-1.77798 z"
   id="path47" /><path
   style="fill:#ffff00;stroke-width:0.883603"
   d="m 252.55756,362.69267 c 0.31343,-1.09346 1.25446,-4.37383 2.09116,-7.28972 1.19315,-4.15812 1.51486,-8.73214 1.49151,-21.20648 -0.0264,-14.12537 -0.296,-17.03088 -2.40936,-25.96915 -2.61942,-11.07853 -3.99895,-13.87076 -7.51313,-15.20683 -3.73063,-1.41839 -5.9006,-0.32845 -14.22816,7.14655 l -7.82246,7.02161 -0.6198,-8.99918 c -1.22738,-17.82065 -5.43509,-34.446 -11.34457,-44.82424 -3.18884,-5.60024 -10.55386,-13.74662 -14.07373,-15.56682 -4.58535,-2.37117 -8.08863,-1.62996 -11.88806,2.51523 -8.59563,9.37787 -21.46169,28.39375 -28.54694,42.19205 -9.84477,19.17238 -14.03199,33.55372 -14.92147,51.24898 l -0.59961,11.92864 -1.95678,-7.06882 c -8.46286,-30.57181 -0.9407,-65.48971 23.41298,-108.68319 5.36893,-9.52229 16.6604,-26.37628 24.69646,-36.8627 7.59953,-9.91678 7.15559,-9.88318 14.72585,-1.11458 15.46709,17.91547 26.01265,46.14208 29.67318,79.42417 0.67307,6.11976 1.29816,8.33045 2.81075,9.94054 3.40764,3.62725 6.86075,2.8389 18.25206,-4.16697 5.5781,-3.43065 10.43331,-5.91578 10.78935,-5.52252 0.82896,0.91561 3.10894,12.56634 4.46283,22.80509 1.46461,11.07603 0.59496,31.50678 -1.73861,40.84534 -2.24528,8.9853 -5.90059,17.17079 -10.76369,24.1036 -4.00024,5.70275 -4.8741,6.4294 -3.97976,3.3094 z"
   id="path49" /><path
   style="fill:#cccccc;stroke-width:0.883603"
   d="M 351.38324,115.73151 C 341.6529,103.21423 331.4809,90.147916 328.7788,86.695259 l -4.91291,-6.277556 11.29578,-8.854299 11.29578,-8.854298 6.22424,8.06303 c 3.42332,4.434668 13.59127,17.469951 22.59543,28.967298 l 16.3712,20.904266 -7.65415,6.00697 c -4.20978,3.30383 -9.28883,7.31929 -11.28677,8.92324 l -3.63263,2.91628 z"
   id="path51" /></svg>
