<?xml version="1.0" encoding="UTF-8" standalone="no"?>
<!-- Generator: Adobe Illustrator 18.0.0, SVG Export Plug-In . SVG Version: 6.00 Build 0)  -->

<svg
   xmlns:dc="http://purl.org/dc/elements/1.1/"
   xmlns:cc="http://creativecommons.org/ns#"
   xmlns:rdf="http://www.w3.org/1999/02/22-rdf-syntax-ns#"
   xmlns:svg="http://www.w3.org/2000/svg"
   xmlns="http://www.w3.org/2000/svg"
   xmlns:sodipodi="http://sodipodi.sourceforge.net/DTD/sodipodi-0.dtd"
   xmlns:inkscape="http://www.inkscape.org/namespaces/inkscape"
   version="1.1"
   id="Capa_1"
   x="0px"
   y="0px"
   viewBox="0 0 297 297"
   style="enable-background:new 0 0 297 297;"
   xml:space="preserve"
   sodipodi:docname="mine.svg"
   inkscape:version="0.92.5 (2060ec1f9f, 2020-04-08)"><metadata
   id="metadata3827"><rdf:RDF><cc:Work
       rdf:about=""><dc:format>image/svg+xml</dc:format><dc:type
         rdf:resource="http://purl.org/dc/dcmitype/StillImage" /></cc:Work></rdf:RDF></metadata><defs
   id="defs3825" /><sodipodi:namedview
   pagecolor="#ffffff"
   bordercolor="#666666"
   borderopacity="1"
   objecttolerance="10"
   gridtolerance="10"
   guidetolerance="10"
   inkscape:pageopacity="0"
   inkscape:pageshadow="2"
   inkscape:window-width="1920"
   inkscape:window-height="1060"
   id="namedview3823"
   showgrid="false"
   inkscape:zoom="2.6632997"
   inkscape:cx="148.5"
   inkscape:cy="148.5"
   inkscape:window-x="0"
   inkscape:window-y="20"
   inkscape:window-maximized="1"
   inkscape:current-layer="Capa_1" />
<path
   d="M289.226,159.824h-7.796l5.512-5.513c3.036-3.037,3.036-7.959,0-10.997c-3.037-3.035-7.959-3.035-10.996,0l-5.79,5.79  V74.231c0.194-18.393-12.712-34.198-30.698-37.613c-21.897-4.561-36.34,11.447-45.232,21.974l-19.867-19.868  c-1.824-1.822-4.295-2.847-6.873-2.847c-2.578,0-5.05,1.024-6.873,2.847l-19.08,19.08c-11.55-4.285-23.89-6.529-36.577-6.529  c-28.034,0-54.39,10.917-74.214,30.74C10.918,101.838,0,128.193,0,156.227c0,28.034,10.918,54.391,30.74,74.213  c19.824,19.822,46.18,30.74,74.213,30.74c28.034,0,54.391-10.918,74.213-30.74c19.822-19.822,30.74-46.179,30.74-74.213  c0-12.686-2.244-25.028-6.529-36.578l19.08-19.079c1.822-1.822,2.847-4.295,2.847-6.873c0-2.577-1.024-5.049-2.847-6.872  l-17.195-17.197c9.19-10.907,18.502-20.426,31.076-17.775c0.056,0.013,0.112,0.024,0.168,0.034  c10.602,1.988,18.214,11.316,18.1,22.263v74.401l-5.235-5.236c-3.037-3.035-7.96-3.035-10.997,0c-3.036,3.038-3.036,7.96,0,10.997  l5.513,5.513h-7.795c-4.294,0-7.775,3.482-7.775,7.775c0,4.293,3.482,7.774,7.775,7.774h7.795l-5.513,5.513  c-3.036,3.037-3.036,7.959,0,10.997c1.519,1.518,3.508,2.276,5.498,2.276c1.99,0,3.98-0.759,5.499-2.276l5.235-5.235v3.393  c0,4.294,3.481,7.775,7.775,7.775c4.293,0,7.774-3.481,7.774-7.775v-3.947l5.79,5.79c1.519,1.518,3.508,2.276,5.498,2.276  c1.99,0,3.979-0.759,5.498-2.276c3.036-3.038,3.036-7.96,0-10.997l-5.512-5.513h7.796c4.294,0,7.774-3.481,7.774-7.774  C297,163.305,293.519,159.824,289.226,159.824z M165.421,216.695c-16.151,16.152-37.625,25.047-60.468,25.047  c-22.842,0-44.316-8.895-60.468-25.047c-16.151-16.151-25.047-37.626-25.047-60.468s8.896-44.316,25.047-60.468  c16.152-16.151,37.627-25.047,60.469-25.047s44.315,8.896,60.467,25.047c16.152,16.151,25.048,37.626,25.048,60.468  S181.573,200.544,165.421,216.695z M179.166,82.014c-5.859-5.859-12.294-10.935-19.169-15.186l7.487-7.487l34.355,34.356  l-7.488,7.488C190.1,94.308,185.026,87.875,179.166,82.014z"
   id="path3790"
   style="fill:#f9f9f9" />
<g
   id="g3792"
   style="fill:#f9f9f9">
</g>
<g
   id="g3794"
   style="fill:#f9f9f9">
</g>
<g
   id="g3796"
   style="fill:#f9f9f9">
</g>
<g
   id="g3798"
   style="fill:#f9f9f9">
</g>
<g
   id="g3800"
   style="fill:#f9f9f9">
</g>
<g
   id="g3802"
   style="fill:#f9f9f9">
</g>
<g
   id="g3804"
   style="fill:#f9f9f9">
</g>
<g
   id="g3806"
   style="fill:#f9f9f9">
</g>
<g
   id="g3808"
   style="fill:#f9f9f9">
</g>
<g
   id="g3810"
   style="fill:#f9f9f9">
</g>
<g
   id="g3812"
   style="fill:#f9f9f9">
</g>
<g
   id="g3814"
   style="fill:#f9f9f9">
</g>
<g
   id="g3816"
   style="fill:#f9f9f9">
</g>
<g
   id="g3818"
   style="fill:#f9f9f9">
</g>
<g
   id="g3820"
   style="fill:#f9f9f9">
</g>
</svg>