<?xml version="1.0" encoding="UTF-8" standalone="no"?>
<svg
   xmlns:dc="http://purl.org/dc/elements/1.1/"
   xmlns:cc="http://creativecommons.org/ns#"
   xmlns:rdf="http://www.w3.org/1999/02/22-rdf-syntax-ns#"
   xmlns:svg="http://www.w3.org/2000/svg"
   xmlns="http://www.w3.org/2000/svg"
   xmlns:sodipodi="http://sodipodi.sourceforge.net/DTD/sodipodi-0.dtd"
   xmlns:inkscape="http://www.inkscape.org/namespaces/inkscape"
   version="1.1"
   id="Capa_1"
   x="0px"
   y="0px"
   viewBox="0 0 402.641 402.641"
   style="enable-background:new 0 0 402.641 402.641;"
   xml:space="preserve"
   sodipodi:docname="mountain-1.svg"
   inkscape:version="1.0.2 (e86c870879, 2021-01-15)"><metadata
   id="metadata1801"><rdf:RDF><cc:Work
       rdf:about=""><dc:format>image/svg+xml</dc:format><dc:type
         rdf:resource="http://purl.org/dc/dcmitype/StillImage" /></cc:Work></rdf:RDF></metadata><defs
   id="defs1799" /><sodipodi:namedview
   pagecolor="#ffffff"
   bordercolor="#666666"
   borderopacity="1"
   objecttolerance="10"
   gridtolerance="10"
   guidetolerance="10"
   inkscape:pageopacity="0"
   inkscape:pageshadow="2"
   inkscape:window-width="1920"
   inkscape:window-height="1022"
   id="namedview1797"
   showgrid="false"
   inkscape:zoom="1.8155131"
   inkscape:cx="202.42211"
   inkscape:cy="198.56645"
   inkscape:window-x="0"
   inkscape:window-y="24"
   inkscape:window-maximized="1"
   inkscape:current-layer="Capa_1" />
<path
   d="M399.415,342.027L296.775,211.991c-2.845-3.604-7.184-5.706-11.774-5.706c-4.591,0-8.93,2.103-11.774,5.706l-24.545,31.097  L180,156.078v-29.758h55.049c8.284,0,15-6.716,15-15v-60c0-8.284-6.716-15-15-15h-70c-0.008,0-0.016,0.001-0.024,0.001  c-0.009,0-0.017-0.001-0.024-0.001c-8.284,0-15,6.716-15,15v104.758L3.227,342.027c-3.563,4.513-4.233,10.663-1.725,15.836  c2.507,5.173,7.75,8.458,13.498,8.458h167.36h0.001h205.279c5.748,0,10.991-3.285,13.498-8.458  C403.646,352.69,402.977,346.539,399.415,342.027z M165,185.495l32.225,40.825h-64.449L165,185.495z M180.049,66.321h40v30h-40  V66.321z M109.096,256.321h111.809l8.666,10.979l-54.48,69.021H45.95L109.096,256.321z M213.31,336.321L285,245.495l71.69,90.825  H213.31z"
   id="path1764" />
<g
   id="g1766">
</g>
<g
   id="g1768">
</g>
<g
   id="g1770">
</g>
<g
   id="g1772">
</g>
<g
   id="g1774">
</g>
<g
   id="g1776">
</g>
<g
   id="g1778">
</g>
<g
   id="g1780">
</g>
<g
   id="g1782">
</g>
<g
   id="g1784">
</g>
<g
   id="g1786">
</g>
<g
   id="g1788">
</g>
<g
   id="g1790">
</g>
<g
   id="g1792">
</g>
<g
   id="g1794">
</g>
<path
   style="fill:#00ffff;stroke-width:0.550808"
   d="M 180.38977,81.244249 V 66.372421 h 19.82911 19.8291 v 14.871828 14.871829 h -19.8291 -19.82911 z"
   id="path1803" /><path
   style="fill:#00ffff;stroke-width:0.550808"
   d="m 48.301544,333.92763 c 1.040012,-1.28751 15.225774,-19.25764 31.523916,-39.93361 l 29.63298,-37.59268 h 55.53417 55.53416 l 4.18914,5.30418 c 2.30403,2.9173 4.11401,5.52958 4.02218,5.80506 -0.0918,0.27548 -12.2875,15.85872 -27.1015,34.62943 l -26.93455,34.12856 H 110.55633 46.410613 Z"
   id="path1805" /><path
   style="fill:#f9f9f9;stroke-width:0.550808"
   d="m 214.64637,335.26357 c 3.91104,-5.46112 70.13589,-88.77107 70.47412,-88.65547 0.35412,0.12103 57.85518,72.63202 68.58901,86.49332 l 2.45256,3.16715 h -71.11772 c -68.73454,0 -71.0936,-0.0337 -70.39797,-1.005 z"
   id="path1807" /><path
   style="fill:#f9f9f9;stroke-width:0.550808"
   d="m 133.97672,225.41837 c 16.62202,-21.17156 30.59842,-38.72939 30.92122,-38.84474 0.34991,-0.12503 29.70519,36.52543 31.07954,38.80322 0.36371,0.60279 -5.04825,0.73003 -31.05042,0.73003 -25.11381,0 -31.38143,-0.13943 -30.95034,-0.68851 z"
   id="path1809" /><path
   style="fill:#008080;stroke-width:0.550808"
   d="m 220.18569,335.85773 c -3.10519,-0.0982 -5.64579,-0.29376 -5.64579,-0.43464 0,-0.14087 0.43376,-0.71411 0.96391,-1.27386 0.53016,-0.55975 1.45965,-1.71911 2.06554,-2.57636 0.60588,-0.85724 1.8452,-2.46403 2.75404,-3.57063 0.90883,-1.10661 2.27208,-2.84193 3.02944,-3.85628 0.75737,-1.01435 2.61634,-3.37261 4.13107,-5.24059 1.51472,-1.86797 3.3737,-4.22268 4.13106,-5.23268 0.75736,-1.01 2.61634,-3.3647 4.13106,-5.23268 1.51473,-1.86798 3.37371,-4.21769 4.13107,-5.22157 0.75736,-1.00389 1.6368,-2.09583 1.95432,-2.42654 0.61737,-0.64302 4.04334,-5.0019 6.30781,-8.02545 0.75736,-1.01125 1.63176,-2.1092 1.94311,-2.43991 0.31135,-0.33071 1.73604,-2.08847 3.16599,-3.90614 1.42995,-1.81766 2.92538,-3.67664 3.32318,-4.13106 2.9251,-3.34137 7.54116,-9.38372 7.54116,-9.87125 0,-0.32676 0.20047,-0.59411 0.44548,-0.59411 0.57007,0 7.81665,-9.19825 7.81665,-9.92186 0,-0.29892 0.19513,-0.5435 0.43363,-0.5435 0.23851,0 3.02698,-3.21207 6.1966,-7.13793 3.16963,-3.92586 5.91872,-7.14809 6.10908,-7.16051 0.19037,-0.0124 1.39787,1.34067 2.68333,3.00687 1.28546,1.66619 2.55491,3.02944 2.82102,3.02944 0.2661,0 0.48383,0.26735 0.48383,0.59411 0,0.51525 5.18894,7.26655 7.67613,9.98735 0.47377,0.51827 1.29514,1.50973 1.82526,2.20323 4.48656,5.86934 5.83853,7.60249 6.51618,8.35342 0.43015,0.47665 1.20714,1.43054 1.72664,2.11975 1.60379,2.12769 6.15423,7.82992 6.75148,8.4604 0.31135,0.32867 1.06182,1.28816 1.66771,2.1322 1.27285,1.77316 5.86698,7.60313 6.31281,8.01099 0.16558,0.15147 1.5466,1.91018 3.06894,3.90824 1.52234,1.99806 3.55499,4.60063 4.517,5.78349 2.56596,3.15501 7.46207,9.35844 13.43514,17.02248 1.88883,2.42355 3.57552,4.5304 3.74821,4.68187 0.63895,0.56045 7.19909,9.3186 7.19909,9.61118 0,0.31198 -125.24006,0.21254 -135.36118,-0.10747 z"
   id="path1811" /><path
   style="fill:#ffff00;stroke-width:0.550808"
   d="M 180.38977,81.244249 V 66.372421 h 19.82911 19.8291 v 14.871828 14.871829 h -19.8291 -19.82911 z"
   id="path1813" /></svg>
