<?xml version="1.0" encoding="UTF-8" standalone="no"?>
<svg
   xmlns:dc="http://purl.org/dc/elements/1.1/"
   xmlns:cc="http://creativecommons.org/ns#"
   xmlns:rdf="http://www.w3.org/1999/02/22-rdf-syntax-ns#"
   xmlns:svg="http://www.w3.org/2000/svg"
   xmlns="http://www.w3.org/2000/svg"
   xmlns:sodipodi="http://sodipodi.sourceforge.net/DTD/sodipodi-0.dtd"
   xmlns:inkscape="http://www.inkscape.org/namespaces/inkscape"
   version="1.1"
   id="Capa_1"
   x="0px"
   y="0px"
   viewBox="0 0 491.531 491.531"
   style="enable-background:new 0 0 491.531 491.531;"
   xml:space="preserve"
   sodipodi:docname="mountain-2.svg"
   inkscape:version="1.0.2 (e86c870879, 2021-01-15)"><metadata
   id="metadata1938"><rdf:RDF><cc:Work
       rdf:about=""><dc:format>image/svg+xml</dc:format><dc:type
         rdf:resource="http://purl.org/dc/dcmitype/StillImage" /></cc:Work></rdf:RDF></metadata><defs
   id="defs1936" /><sodipodi:namedview
   pagecolor="#ffffff"
   bordercolor="#666666"
   borderopacity="1"
   objecttolerance="10"
   gridtolerance="10"
   guidetolerance="10"
   inkscape:pageopacity="0"
   inkscape:pageshadow="2"
   inkscape:window-width="1920"
   inkscape:window-height="1022"
   id="namedview1934"
   showgrid="false"
   inkscape:zoom="1.48719"
   inkscape:cx="247.11032"
   inkscape:cy="242.40346"
   inkscape:window-x="0"
   inkscape:window-y="24"
   inkscape:window-maximized="1"
   inkscape:current-layer="Capa_1" />
<g
   id="g1901">
	<path
   d="M382.835,198.989l-29.591,64.08L258.434,61.824l-82.526,175.163l-42.555-90.327L0,429.707h491.531L382.835,198.989z    M383.017,246.302l22.093,46.895c-2.268,1.565-4.233,3.337-6.025,4.958c-4.551,4.118-7.838,7.094-14.821,7.094   s-10.271-2.976-14.822-7.094c-2.196-1.987-4.653-4.2-7.61-5.979L383.017,246.302z M291.715,179.395   c-4.421,2.333-8.011,5.575-11.171,8.436c-6.124,5.542-11.412,10.329-22.014,10.329s-15.891-4.787-22.014-10.329   c-3.197-2.895-6.833-6.182-11.326-8.521l33.243-70.559L291.715,179.395z M167.337,265.721c-4.044,2.321-7.434,5.382-10.606,8.253   c-6.487,5.871-12.089,10.941-23.378,10.941s-16.891-5.07-23.378-10.941c-3.172-2.871-6.563-5.933-10.607-8.253l33.985-72.133   L167.337,265.721z M31.531,409.707l59.246-125.751c1.641,1.146,3.465,2.753,5.777,4.846c7.513,6.8,17.803,16.113,36.799,16.113   s29.286-9.313,36.799-16.113c2.311-2.092,4.135-3.698,5.776-4.845l59.243,125.75H31.531z M257.279,409.707l-70.318-149.256   l29.694-63.026c1.693,1.019,3.655,2.713,6.439,5.232c7.227,6.542,17.125,15.502,35.436,15.502s28.208-8.96,35.436-15.502   c2.702-2.446,4.629-4.111,6.288-5.139l42.047,89.249l-56.771,122.939H257.279z M353.317,310.617   c0.755,0.621,1.631,1.395,2.705,2.366c5.396,4.885,13.553,12.266,28.242,12.266s22.845-7.381,28.242-12.266   c0.493-0.446,0.935-0.841,1.355-1.212L460,409.707H307.559L353.317,310.617z"
   id="path1897" />
	<path
   d="M374.643,161.131l7.998,10.723l8.041-10.701c0.039-0.052,3.971-5.246,10.171-10.277c5.166-4.19,13.077-9.187,21.437-9.187   v-20c-17.029,0-31.258,10.577-39.62,18.625c-8.361-8.048-22.59-18.625-39.619-18.625v20c8.36,0,16.271,4.996,21.437,9.187   C370.688,155.906,374.62,161.101,374.643,161.131z"
   id="path1899" />
</g>
<g
   id="g1903">
</g>
<g
   id="g1905">
</g>
<g
   id="g1907">
</g>
<g
   id="g1909">
</g>
<g
   id="g1911">
</g>
<g
   id="g1913">
</g>
<g
   id="g1915">
</g>
<g
   id="g1917">
</g>
<g
   id="g1919">
</g>
<g
   id="g1921">
</g>
<g
   id="g1923">
</g>
<g
   id="g1925">
</g>
<g
   id="g1927">
</g>
<g
   id="g1929">
</g>
<g
   id="g1931">
</g>
<path
   style="fill:#00ffff;stroke-width:0.672409"
   d="m 32.611838,408.779 c 0,-0.38106 57.829396,-123.44788 58.236749,-123.9337 0.118118,-0.14087 2.721897,1.9339 5.786174,4.61061 13.714559,11.97995 21.920069,15.45213 36.562769,15.47165 14.8829,0.0198 23.66551,-3.73702 37.54446,-16.06003 2.56133,-2.27418 4.87782,-3.90061 5.14775,-3.61428 0.37372,0.3964 56.51846,119.05641 58.23001,123.06714 0.28603,0.67027 -20.08495,0.84051 -100.57462,0.84051 -55.513309,0 -100.933292,-0.17186 -100.933292,-0.3819 z"
   id="path1940" /><path
   style="fill:#00ffff;stroke-width:0.672409"
   d="m 222.60141,335.15147 c -19.18797,-40.71943 -34.87211,-74.38773 -34.85363,-74.81845 0.0372,-0.8672 28.28556,-61.03009 28.99529,-61.75368 0.24478,-0.24956 3.5054,2.17112 7.24582,5.37927 8.04849,6.90317 13.66923,10.37441 20.09559,12.41057 6.84136,2.16765 22.07223,2.16765 28.91359,0 6.4221,-2.03481 12.04291,-5.50471 20.09559,-12.40564 l 6.80077,-5.82808 1.21735,2.34582 c 0.66954,1.29021 10.11393,21.24169 20.98751,44.33663 l 19.77017,41.9908 -28.19629,61.00799 -28.19629,61.00799 -13.99412,0.18106 -13.99413,0.18104 z"
   id="path1942" /><path
   style="fill:#008080;stroke-width:0.672409"
   d="m 309.8919,405.63075 c 5.01934,-11.24734 42.98866,-93.0451 43.3845,-93.46376 0.26169,-0.27676 2.42796,1.15459 4.81393,3.18078 8.38749,7.12273 15.94185,10.01614 26.19143,10.03164 10.16242,0.0154 18.43705,-3.14617 25.97689,-9.92513 l 3.43076,-3.08455 22.61488,47.97667 c 12.43818,26.38718 22.61488,48.16519 22.61488,48.39559 0,0.2304 -33.88561,0.41891 -75.30134,0.41891 H 308.3165 Z"
   id="path1944" /><path
   style="fill:#008080;stroke-width:0.672409"
   d="m 255.2777,403.70004 c -1.43503,-3.09864 -12.51527,-26.66348 -24.62274,-52.36632 -23.43104,-49.74149 -39.45514,-83.99619 -41.3785,-88.45475 l -1.17449,-2.7226 9.21733,-19.8031 c 12.83896,-27.58407 19.35261,-40.98399 19.92215,-40.98399 0.26729,0 3.23918,2.23175 6.60421,4.95944 13.42932,10.88582 18.51253,13.10299 31.33357,13.66697 16.94185,0.74525 23.98348,-1.8479 38.66352,-14.23822 l 6.05168,-5.10778 2.4384,5.23476 c 1.34113,2.87912 10.67468,22.63334 20.74123,43.89828 15.75345,33.27816 18.2154,38.89767 17.67526,40.34454 -0.34515,0.92456 -12.9759,28.38407 -28.06832,61.02112 l -27.44078,59.3401 -11.16414,0.007 c -6.14028,0.004 -12.29479,0.19429 -13.67668,0.42272 l -2.51254,0.41532 -2.60916,-5.63389 z"
   id="path1946" /><path
   style="fill:#00ffff;stroke-width:0.672409"
   d="m 308.97195,408.90923 c 0,-0.45328 21.72457,-47.63718 36.6517,-79.60433 l 7.93153,-16.98576 2.08321,1.68292 c 5.54776,4.48172 12.29945,8.50875 16.40152,9.78265 13.1091,4.07105 26.95324,1.39168 37.53628,-7.26472 l 4.11354,-3.36466 7.78631,16.56766 c 4.28248,9.11222 14.31223,30.4569 22.28834,47.43262 7.97612,16.97573 14.42196,30.94452 14.3241,31.04176 -0.41584,0.4132 -149.11653,1.12307 -149.11653,0.71186 z"
   id="path1948" /><path
   style="fill:#f9f9f9;stroke-width:0.672409"
   d="m 127.63457,284.06188 c -4.75342,-0.9396 -9.9545,-3.95112 -16.14872,-9.35041 -3.26021,-2.84182 -7.19158,-6.08251 -8.73637,-7.20156 l -2.808708,-2.03461 16.735018,-35.53864 16.73502,-35.53864 1.96594,4.33475 c 1.08126,2.38412 8.50861,18.20579 16.50521,35.15927 7.9966,16.95348 14.53928,31.04799 14.53928,31.32114 0,0.27314 -1.28599,1.4244 -2.85774,2.55835 -1.57176,1.13395 -5.27841,4.20512 -8.23701,6.82483 -9.78418,8.66345 -17.83236,11.41444 -27.69192,9.46552 z"
   id="path1950" /><path
   style="fill:#f9f9f9;stroke-width:0.672409"
   d="m 253.19556,197.32825 c -4.86811,-1.01586 -9.3536,-3.72437 -16.84378,-10.17095 -3.88317,-3.34212 -7.87331,-6.49831 -8.867,-7.01377 l -1.8067,-0.93718 7.21761,-15.30198 c 3.96969,-8.41608 11.28826,-23.97327 16.2635,-34.57153 4.97523,-10.59825 9.24328,-19.07061 9.48454,-18.82745 0.63934,0.64437 32.17318,67.82467 32.17318,68.54238 0,0.33318 -0.68082,0.92244 -1.51292,1.30947 -0.83211,0.38702 -4.38747,3.18728 -7.90081,6.22278 -7.26472,6.27668 -10.44539,8.46673 -14.24175,9.80617 -3.56068,1.25628 -10.28608,1.70994 -13.96587,0.94206 z"
   id="path1952" /><path
   style="fill:#f9f9f9;stroke-width:0.672409"
   d="m 379.53563,304.34022 c -2.93635,-0.95983 -4.3961,-1.93847 -10.1405,-6.79836 -3.0605,-2.58925 -5.80438,-4.70772 -6.0975,-4.70772 -0.29313,0 -0.53295,-0.3922 -0.53295,-0.87155 0,-0.95055 19.25672,-42.8574 20.06669,-43.66952 0.27332,-0.27404 5.27221,9.67413 11.10863,22.10706 5.83643,12.43292 10.36278,22.81993 10.05856,23.08224 -6.64341,5.72811 -10.70603,8.93934 -12.45101,9.8417 -2.45419,1.26911 -9.43217,1.85942 -12.01192,1.01615 z"
   id="path1954" /></svg>
