<?xml version="1.0" encoding="UTF-8" standalone="no"?>
<svg
   xmlns:dc="http://purl.org/dc/elements/1.1/"
   xmlns:cc="http://creativecommons.org/ns#"
   xmlns:rdf="http://www.w3.org/1999/02/22-rdf-syntax-ns#"
   xmlns:svg="http://www.w3.org/2000/svg"
   xmlns="http://www.w3.org/2000/svg"
   xmlns:sodipodi="http://sodipodi.sourceforge.net/DTD/sodipodi-0.dtd"
   xmlns:inkscape="http://www.inkscape.org/namespaces/inkscape"
   version="1.1"
   id="Layer_1"
   x="0px"
   y="0px"
   viewBox="0 0 490 490"
   style="enable-background:new 0 0 490 490;"
   xml:space="preserve"
   sodipodi:docname="mountain-3.svg"
   inkscape:version="1.0.2 (e86c870879, 2021-01-15)"><metadata
   id="metadata2077"><rdf:RDF><cc:Work
       rdf:about=""><dc:format>image/svg+xml</dc:format><dc:type
         rdf:resource="http://purl.org/dc/dcmitype/StillImage" /></cc:Work></rdf:RDF></metadata><defs
   id="defs2075" /><sodipodi:namedview
   pagecolor="#ffffff"
   bordercolor="#666666"
   borderopacity="1"
   objecttolerance="10"
   gridtolerance="10"
   guidetolerance="10"
   inkscape:pageopacity="0"
   inkscape:pageshadow="2"
   inkscape:window-width="1920"
   inkscape:window-height="1022"
   id="namedview2073"
   showgrid="false"
   inkscape:zoom="1.4918367"
   inkscape:cx="245"
   inkscape:cy="241.64843"
   inkscape:window-x="0"
   inkscape:window-y="24"
   inkscape:window-maximized="1"
   inkscape:current-layer="Layer_1" />
<g
   id="XMLID_536_">
	<g
   id="g2039">
		<path
   d="M260,150.168V110h109.271l-27.5-55l27.5-55H230v150.168L2.821,466.145L0,470.167V490h475l15-0.1v-19.833L260,150.168z     M260,30h60.729l-12.5,25l12.5,25H260V30z M245,180.695l94.541,131.495l-36.1,24.595L245,296.771l-58.441,40.014l-36.1-24.595    L245,180.695z M44.188,460l88.753-123.444l53.66,36.56L245,333.129l58.399,39.986l53.66-36.56L445.813,460H44.188z"
   id="path2037" />
	</g>
</g>
<g
   id="g2042">
</g>
<g
   id="g2044">
</g>
<g
   id="g2046">
</g>
<g
   id="g2048">
</g>
<g
   id="g2050">
</g>
<g
   id="g2052">
</g>
<g
   id="g2054">
</g>
<g
   id="g2056">
</g>
<g
   id="g2058">
</g>
<g
   id="g2060">
</g>
<g
   id="g2062">
</g>
<g
   id="g2064">
</g>
<g
   id="g2066">
</g>
<g
   id="g2068">
</g>
<g
   id="g2070">
</g>
<path
   style="fill:#00ffff;stroke-width:0.670315"
   d="M 48.384548,454.93041 C 64.74447,431.77967 132.83,337.51988 133.19745,337.5127 c 0.41066,-0.008 23.23419,15.41305 46.21962,31.22899 l 7.1462,4.9172 28.84895,-19.75352 c 15.86692,-10.86444 29.19252,-19.75352 29.61245,-19.75352 0.41992,0 13.74282,8.8885 29.60641,19.75223 l 28.84291,19.75224 8.13305,-5.5855 c 28.69383,-19.70596 44.92467,-30.58991 45.36982,-30.42376 0.38992,0.14554 63.86206,88.09672 84.67337,117.329 l 3.22121,4.52462 H 245.01315 45.154869 Z"
   id="path2079" /><path
   style="fill:#ffffff;stroke-width:0.670315"
   d="m 169.5896,324.70559 c -9.21682,-6.28986 -17.17918,-11.67602 -17.69413,-11.96924 -0.70529,-0.4016 10.61347,-16.59555 45.87875,-65.63953 25.74826,-35.80852 47.00104,-65.1064 47.22839,-65.1064 0.51031,0 94.07057,130.05639 93.74239,130.30959 -0.5757,0.44415 -33.83779,22.98154 -34.56998,23.42357 -0.50263,0.30344 -11.98736,-7.15243 -29.78076,-19.33364 -17.0713,-11.68685 -29.35625,-19.67651 -29.92134,-19.45967 -0.52728,0.20234 -13.72278,9.11244 -29.32331,19.80021 -15.60054,10.68777 -28.46306,19.42756 -28.58338,19.42177 -0.12032,-0.006 -7.7598,-5.1568 -16.97663,-11.44666 z"
   id="path2081" /><path
   style="fill:#ff0000;stroke-width:0.670315"
   d="M 260.41724,54.9658 V 30.499316 h 29.82667 29.82666 l -6.11196,12.245141 -6.11196,12.24514 6.11783,12.221344 6.11782,12.221344 h -29.83253 -29.83253 z"
   id="path2083" /></svg>
