<?xml version="1.0" encoding="iso-8859-1"?>
<!-- Generator: Adobe Illustrator 18.0.0, SVG Export Plug-In . SVG Version: 6.00 Build 0)  -->
<!DOCTYPE svg PUBLIC "-//W3C//DTD SVG 1.1//EN" "http://www.w3.org/Graphics/SVG/1.1/DTD/svg11.dtd">
<svg version="1.1" id="Capa_1" xmlns="http://www.w3.org/2000/svg" xmlns:xlink="http://www.w3.org/1999/xlink" x="0px" y="0px"
	 viewBox="0 0 402.641 402.641" style="enable-background:new 0 0 402.641 402.641;" xml:space="preserve">
<path d="M399.415,342.027L296.775,211.991c-2.845-3.604-7.184-5.706-11.774-5.706c-4.591,0-8.93,2.103-11.774,5.706l-24.545,31.097
	L180,156.078v-29.758h55.049c8.284,0,15-6.716,15-15v-60c0-8.284-6.716-15-15-15h-70c-0.008,0-0.016,0.001-0.024,0.001
	c-0.009,0-0.017-0.001-0.024-0.001c-8.284,0-15,6.716-15,15v104.758L3.227,342.027c-3.563,4.513-4.233,10.663-1.725,15.836
	c2.507,5.173,7.75,8.458,13.498,8.458h167.36h0.001h205.279c5.748,0,10.991-3.285,13.498-8.458
	C403.646,352.69,402.977,346.539,399.415,342.027z M165,185.495l32.225,40.825h-64.449L165,185.495z M180.049,66.321h40v30h-40
	V66.321z M109.096,256.321h111.809l8.666,10.979l-54.48,69.021H45.95L109.096,256.321z M213.31,336.321L285,245.495l71.69,90.825
	H213.31z"/>
<g>
</g>
<g>
</g>
<g>
</g>
<g>
</g>
<g>
</g>
<g>
</g>
<g>
</g>
<g>
</g>
<g>
</g>
<g>
</g>
<g>
</g>
<g>
</g>
<g>
</g>
<g>
</g>
<g>
</g>
</svg>
