<?xml version="1.0" encoding="UTF-8" standalone="no"?>
<svg
   xmlns:dc="http://purl.org/dc/elements/1.1/"
   xmlns:cc="http://creativecommons.org/ns#"
   xmlns:rdf="http://www.w3.org/1999/02/22-rdf-syntax-ns#"
   xmlns:svg="http://www.w3.org/2000/svg"
   xmlns="http://www.w3.org/2000/svg"
   xmlns:sodipodi="http://sodipodi.sourceforge.net/DTD/sodipodi-0.dtd"
   xmlns:inkscape="http://www.inkscape.org/namespaces/inkscape"
   width="512px"
   height="512px"
   viewBox="0 0 512 512"
   version="1.1"
   id="svg60"
   sodipodi:docname="turret-svgrepo-com.svg"
   inkscape:version="0.92.5 (2060ec1f9f, 2020-04-08)">
  <metadata
     id="metadata66">
    <rdf:RDF>
      <cc:Work
         rdf:about="">
        <dc:format>image/svg+xml</dc:format>
        <dc:type
           rdf:resource="http://purl.org/dc/dcmitype/StillImage" />
      </cc:Work>
    </rdf:RDF>
  </metadata>
  <defs
     id="defs64" />
  <sodipodi:namedview
     pagecolor="#ffffff"
     bordercolor="#666666"
     borderopacity="1"
     objecttolerance="10"
     gridtolerance="10"
     guidetolerance="10"
     inkscape:pageopacity="0"
     inkscape:pageshadow="2"
     inkscape:window-width="1920"
     inkscape:window-height="1060"
     id="namedview62"
     showgrid="false"
     inkscape:zoom="1.7285156"
     inkscape:cx="256"
     inkscape:cy="256"
     inkscape:window-x="0"
     inkscape:window-y="20"
     inkscape:window-maximized="1"
     inkscape:current-layer="svg60" />
  <path
     fill="#000"
     d="M130.72 61C106 61.11 106 62.875 106 91H76l-15 30v60l15 30h30c0 30 0 30 30 30h120c30 0 30 0 30-30h15l15-30h180v-60H316l-15-30h-15c0-30 0-30-30-30H136c-1.875 0-3.633-.007-5.28 0zM166 271a15 15 0 0 0-15 15v45a15 15 0 0 0 15 15h60a15 15 0 0 0 15-15v-45a15 15 0 0 0-15-15h-60zm-15 105c-30 0-45 30-45 30-15 0-30 0-30 15l-60 15v15h360v-15l-60-15c0-15-15-15-30-15 0 0-15-30-45-30h-90z"
     id="path58"
     style="fill:#f2f2f2" />
</svg>
