<?xml version="1.0" encoding="iso-8859-1"?>
<!-- Generator: Adobe Illustrator 19.0.0, SVG Export Plug-In . SVG Version: 6.00 Build 0)  -->
<svg version="1.1" id="Capa_1" xmlns="http://www.w3.org/2000/svg" xmlns:xlink="http://www.w3.org/1999/xlink" x="0px" y="0px"
	 viewBox="0 0 60 60" style="enable-background:new 0 0 60 60;" xml:space="preserve">
<g>
	<g>
		<path d="M23.743,17.273c0.122-0.353,0.037-0.743-0.22-1.014C22.031,14.688,19.593,13.75,17,13.75
			c-3.652,0-6.837,1.841-7.743,4.478c-0.121,0.352-0.037,0.743,0.22,1.014c1.491,1.571,3.93,2.509,6.524,2.509
			C19.652,21.75,22.837,19.909,23.743,17.273z M16.257,15.789C16.098,16.075,16,16.4,16,16.75c0,1.103,0.897,2,2,2s2-0.897,2-2
			c0-0.156-0.022-0.307-0.056-0.453c0.611,0.235,1.178,0.524,1.643,0.895C20.692,18.704,18.469,19.75,16,19.75
			c-1.783,0-3.446-0.53-4.587-1.442C12.217,16.95,14.094,15.975,16.257,15.789z"/>
		<path d="M43,13.75c-2.593,0-5.031,0.938-6.523,2.509c-0.257,0.271-0.342,0.661-0.22,1.014c0.906,2.636,4.091,4.477,7.743,4.477
			c2.594,0,5.032-0.938,6.523-2.509c0.257-0.271,0.341-0.661,0.22-1.014C49.837,15.591,46.652,13.75,43,13.75z M44,19.75
			c-2.469,0-4.692-1.046-5.587-2.558c0.465-0.372,1.032-0.66,1.643-0.895C40.022,16.443,40,16.594,40,16.75c0,1.103,0.897,2,2,2
			s2-0.897,2-2c0-0.35-0.098-0.675-0.257-0.961c2.162,0.186,4.041,1.161,4.844,2.519C47.446,19.22,45.783,19.75,44,19.75z"/>
		<path d="M43.586,28.75l0.629,0.628C41.398,31.435,35.907,32.75,30,32.75c-5.898,0-11.396-1.316-14.214-3.372l0.628-0.628
			L15,27.336l-3.414,3.414L13,32.164l1.357-1.357c3.13,2.435,9.089,3.943,15.643,3.943c6.562,0,12.51-1.508,15.642-3.944L47,32.164
			l1.414-1.414L45,27.336L43.586,28.75z"/>
		<path d="M59.082,24.75C59.674,23.13,60,21,60,18.75c0-4.473-1.35-9-3.929-9c-0.787,0-1.864,0.439-2.735,2.345
			C48.316,6.484,40.208,3.25,30,3.25S11.684,6.484,6.664,12.095C5.793,10.189,4.716,9.75,3.929,9.75C1.35,9.75,0,14.277,0,18.75
			c0,2.25,0.326,4.38,0.918,6c0.047,0.128,0.123,0.234,0.21,0.328C1.044,25.949,1,26.839,1,27.75c0,15.991,13.01,29,29,29
			s29-13.009,29-29c0-0.911-0.044-1.801-0.128-2.672C58.959,24.984,59.035,24.878,59.082,24.75z M2,18.75c0-4.547,1.369-7,1.929-7
			c0.108,0,0.619,0.286,1.132,1.687c0.051,0.139,0.133,0.257,0.231,0.356c-1.417,1.949-2.505,4.134-3.23,6.53
			C2.023,19.811,2,19.287,2,18.75z M30,54.75c-14.888,0-27-12.112-27-27c0-13.668,10.598-22.5,27-22.5s27,8.832,27,22.5
			C57,42.638,44.888,54.75,30,54.75z M54.708,13.792c0.098-0.099,0.181-0.215,0.232-0.355c0.513-1.401,1.023-1.687,1.132-1.687
			c0.56,0,1.929,2.453,1.929,7c0,0.537-0.023,1.062-0.062,1.573C57.213,17.927,56.125,15.741,54.708,13.792z"/>
		<path d="M25.129,21.972c-0.43,0.347-0.496,0.977-0.148,1.406l4.242,5.243c0.19,0.235,0.476,0.371,0.777,0.371
			s0.588-0.136,0.777-0.371l4.242-5.243c0.348-0.429,0.281-1.059-0.148-1.406c-0.429-0.349-1.061-0.281-1.406,0.148L30,26.402
			l-3.465-4.282C26.188,21.691,25.558,21.624,25.129,21.972z"/>
		<path d="M11.281,13.875c0.592-0.74,2.113-2.369,3.035-2.676C14.983,10.976,17.44,10.25,21,10.25c3.048,0,6.038-0.493,6.164-0.514
			l0.986-0.165l-0.328-1.973l-0.986,0.165C26.807,7.769,23.884,8.25,21,8.25c-3.757,0-6.368,0.735-7.316,1.051
			c-1.731,0.577-3.741,3.044-3.965,3.324l-0.624,0.781l1.561,1.25L11.281,13.875z"/>
		<path d="M46.316,9.301C45.368,8.985,42.757,8.25,39,8.25c-2.877,0-5.807-0.481-5.836-0.486L32.178,7.6L31.85,9.572l0.986,0.165
			C32.962,9.757,35.952,10.25,39,10.25c3.561,0,6.017,0.726,6.684,0.949c0.886,0.295,2.332,1.798,3.036,2.676l0.625,0.78
			l1.561-1.249l-0.624-0.78C50.058,12.346,48.047,9.878,46.316,9.301z"/>
	</g>
</g>
<g>
</g>
<g>
</g>
<g>
</g>
<g>
</g>
<g>
</g>
<g>
</g>
<g>
</g>
<g>
</g>
<g>
</g>
<g>
</g>
<g>
</g>
<g>
</g>
<g>
</g>
<g>
</g>
<g>
</g>
</svg>
