<?xml version="1.0" encoding="iso-8859-1"?>
<!-- Generator: Adobe Illustrator 19.0.0, SVG Export Plug-In . SVG Version: 6.00 Build 0)  -->
<svg version="1.1" id="Capa_1" xmlns="http://www.w3.org/2000/svg" xmlns:xlink="http://www.w3.org/1999/xlink" x="0px" y="0px"
	 viewBox="0 0 57.942 57.942" style="enable-background:new 0 0 57.942 57.942;" xml:space="preserve">
<g>
	<g>
		<rect x="25.971" y="36.942" width="6" height="2"/>
		<rect x="29.971" y="33.942" width="7.099" height="2"/>
		<rect x="20.971" y="33.942" width="7.099" height="2"/>
		<circle cx="21.971" cy="26.942" r="2"/>
		<path d="M50.977,47.942h-4.006h-5h-5v-3c3.86-0.004,7-3.144,7-7.004v-6.087c2.279-0.418,4-2.236,4-4.409s-1.721-3.991-4-4.409
			v-0.091v-2.927l1.648-11.56c0.407-2.861-0.326-5.292-2.068-6.845c-1.736-1.548-4.229-2.002-7.028-1.267
			c-2.418,0.675-6.605,1.746-7.552,1.746c-0.945,0-5.127-1.068-7.558-1.747c-2.799-0.728-5.295-0.271-7.031,1.282
			c-1.735,1.55-2.466,3.976-2.06,6.83l1.648,11.561v2.927v0.091c-2.279,0.418-4,2.236-4,4.409s1.721,3.991,4,4.409v6.087
			c0,3.86,3.14,7,7,7.003v3h-5h-5H6.965c-2.754,0-4.994,2.243-4.994,5v4c0,0.553,0.447,1,1,1h8h5h26h5h8c0.553,0,1-0.447,1-1v-4
			C55.971,50.186,53.731,47.942,50.977,47.942z M21.971,49.942h14h5v6h-24v-6H21.971z M15.971,20.942h26v1h-26V20.942z
			 M45.971,27.442c0,1.085-0.839,2.001-2,2.347v-4.693C45.133,25.441,45.971,26.357,45.971,27.442z M15.715,3.116
			c1.222-1.093,3.065-1.39,5.179-0.843c1.086,0.304,6.58,1.816,8.077,1.816s7.001-1.517,8.074-1.815
			c2.115-0.557,3.953-0.26,5.176,0.829c1.225,1.092,1.729,2.893,1.418,5.068l-1.535,10.771H15.838L14.303,8.172
			C13.994,6.002,14.495,4.206,15.715,3.116z M11.971,27.442c0-1.085,0.839-2.001,2-2.347v4.693
			C12.81,29.444,11.971,28.528,11.971,27.442z M15.971,37.939v-5.996v-2v-5v-1h26v1v5v2v5.996c0,2.759-2.246,5.004-5.007,5.004
			h-1.993h-12h-1.993C18.217,42.942,15.971,40.697,15.971,37.939z M22.971,44.942h12v3h-12V44.942z M3.971,52.942
			c0-1.654,1.343-3,2.994-3h3.006v6h-6V52.942z M11.971,55.942v-6h3v6H11.971z M42.971,55.942v-6h3v6H42.971z M53.971,55.942h-6v-6
			h3.006c1.651,0,2.994,1.346,2.994,3V55.942z"/>
		<circle cx="35.971" cy="26.942" r="2"/>
	</g>
</g>
<g>
</g>
<g>
</g>
<g>
</g>
<g>
</g>
<g>
</g>
<g>
</g>
<g>
</g>
<g>
</g>
<g>
</g>
<g>
</g>
<g>
</g>
<g>
</g>
<g>
</g>
<g>
</g>
<g>
</g>
</svg>
