<?xml version="1.0" encoding="iso-8859-1"?>
<!-- Generator: Adobe Illustrator 16.0.0, SVG Export Plug-In . SVG Version: 6.00 Build 0)  -->
<!DOCTYPE svg PUBLIC "-//W3C//DTD SVG 1.1//EN" "http://www.w3.org/Graphics/SVG/1.1/DTD/svg11.dtd">
<svg version="1.1" id="Capa_1" xmlns="http://www.w3.org/2000/svg" xmlns:xlink="http://www.w3.org/1999/xlink" x="0px" y="0px"
	 width="55.421px" height="55.421px" viewBox="0 0 55.421 55.421" style="enable-background:new 0 0 55.421 55.421;"
	 xml:space="preserve">
<g>
	<g>
		<path d="M27.74,23.503c5.283,0,9.583-4.299,9.583-9.583s-4.301-9.583-9.583-9.583c-5.284,0-9.584,4.299-9.584,9.583
			S22.457,23.503,27.74,23.503z M27.74,6.337c4.183,0,7.583,3.401,7.583,7.583s-3.4,7.583-7.583,7.583
			c-4.182,0-7.584-3.401-7.584-7.583S23.559,6.337,27.74,6.337z"/>
		<path d="M27.74,19.011c2.808,0,5.092-2.284,5.092-5.091s-2.284-5.091-5.092-5.091c-2.807,0-5.091,2.284-5.091,5.091
			S24.935,19.011,27.74,19.011z M29.854,13.248c0,0.463-0.377,0.84-0.841,0.84c-0.463,0-0.842-0.377-0.842-0.84
			s0.379-0.839,0.842-0.839C29.477,12.409,29.854,12.785,29.854,13.248z M27.5,10.854c-0.795,0.504-1.327,1.385-1.327,2.394
			c0,1.565,1.274,2.84,2.84,2.84c0.397,0,0.775-0.083,1.118-0.231c-0.566,0.699-1.422,1.155-2.391,1.155
			c-1.704,0-3.092-1.387-3.092-3.091C24.648,12.298,25.91,10.98,27.5,10.854z"/>
		<path d="M3.376,55.421h48.667c0.335,0,0.646-0.168,0.833-0.444c0.188-0.279,0.221-0.636,0.089-0.939
			c-0.062-0.145-5.979-14.457-4.063-31.073c0.019-0.136-0.004-0.271-0.053-0.396c0.032-0.445,0.062-0.915,0.062-1.399
			c0-4.537-1.448-8.735-3.891-12.185l4.188-4.186l0.938,0.94c0.194,0.195,0.451,0.293,0.707,0.293s0.514-0.098,0.707-0.293
			c0.393-0.391,0.393-1.023,0-1.414l-3.562-3.56c-0.393-0.391-1.022-0.391-1.414,0c-0.393,0.391-0.393,1.023,0,1.414l1.205,1.205
			L43.78,7.394C39.894,2.876,34.151,0,27.739,0c-6.307,0-11.963,2.788-15.843,7.165L8.806,4.074L9.5,3.38
			c0.391-0.391,0.391-1.023,0-1.414c-0.391-0.391-1.023-0.391-1.414,0L5.001,5.049c-0.391,0.391-0.391,1.023,0,1.414
			c0.195,0.195,0.451,0.293,0.707,0.293S6.22,6.658,6.416,6.463l0.975-0.975l3.244,3.244c-2.542,3.481-4.06,7.744-4.059,12.353
			c-0.813,9.836-2.724,29.39-4.131,32.974c-0.121,0.309-0.082,0.653,0.104,0.93C2.735,55.259,3.045,55.421,3.376,55.421z
			 M8.573,21.165c0-10.568,8.599-19.167,19.167-19.167c10.568,0,19.167,8.599,19.167,19.167c0,0.549-0.039,1.098-0.081,1.609
			c-0.013,0.117,0.008,0.232,0.046,0.343c-1.536,14.138,2.256,26.285,3.715,30.304H4.716C6.493,46.189,8.48,22.33,8.573,21.165z"/>
		<path d="M37.489,27.67c-0.553,0-1,0.447-1,1c0,0.713-0.577,1.291-1.291,1.291c-0.713,0-1.293-0.578-1.293-1.291
			c0-0.553-0.445-1-1-1c-0.553,0-1,0.447-1,1c0,0.713-0.577,1.291-1.291,1.291c-0.713,0-1.291-0.578-1.291-1.291
			c0-0.553-0.446-1-1-1s-1,0.447-1,1c0,0.713-0.579,1.291-1.292,1.291c-0.712,0-1.291-0.578-1.291-1.291c0-0.553-0.447-1-1-1
			c-0.553,0-1,0.447-1,1c0,0.713-0.579,1.291-1.292,1.291c-0.713,0-1.292-0.578-1.292-1.291c0-0.553-0.447-1-1-1
			c-0.553,0-1,0.447-1,1v5.541c0,1.814,1.477,3.291,3.292,3.291c0.891,0,1.699-0.357,2.292-0.936c0.593,0.576,1.4,0.936,2.291,0.936
			c0.893,0,1.699-0.357,2.292-0.936c0.594,0.576,1.398,0.936,2.291,0.936s1.697-0.357,2.291-0.936
			c0.595,0.576,1.4,0.936,2.293,0.936c1.814,0,3.291-1.477,3.291-3.291V28.67C38.489,28.118,38.044,27.67,37.489,27.67z
			 M35.198,35.503c-0.713,0-1.293-0.578-1.293-1.291c0-0.553-0.445-1-1-1c-0.553,0-1,0.447-1,1c0,0.713-0.577,1.291-1.291,1.291
			c-0.713,0-1.291-0.578-1.291-1.291c0-0.553-0.446-1-1-1s-1,0.447-1,1c0,0.713-0.579,1.291-1.292,1.291
			c-0.712,0-1.291-0.578-1.291-1.291c0-0.553-0.447-1-1-1c-0.553,0-1,0.447-1,1c0,0.713-0.579,1.291-1.292,1.291
			c-0.713,0-1.292-0.578-1.292-1.291v-2.515c0.397,0.171,0.833,0.265,1.292,0.265c0.891,0,1.699-0.356,2.292-0.937
			c0.593,0.578,1.4,0.937,2.291,0.937c0.893,0,1.699-0.356,2.292-0.937c0.594,0.576,1.398,0.937,2.291,0.937
			s1.697-0.356,2.291-0.937c0.595,0.578,1.4,0.937,2.293,0.937c0.459,0,0.896-0.094,1.291-0.265v2.515
			C36.489,34.925,35.912,35.503,35.198,35.503z"/>
		<path d="M32.905,43.337h-8.362c-0.553,0-1,0.447-1,1c0,0.556,0.447,1,1,1h8.362c0.555,0,1-0.444,1-1
			C33.905,43.784,33.46,43.337,32.905,43.337z"/>
		<path d="M43.96,16.42c-0.555,0-1,0.447-1,1v14.021c0,0.554,0.445,1,1,1c0.553,0,1-0.446,1-1V17.42
			C44.96,16.868,44.513,16.42,43.96,16.42z"/>
	</g>
</g>
<g>
</g>
<g>
</g>
<g>
</g>
<g>
</g>
<g>
</g>
<g>
</g>
<g>
</g>
<g>
</g>
<g>
</g>
<g>
</g>
<g>
</g>
<g>
</g>
<g>
</g>
<g>
</g>
<g>
</g>
</svg>
