<?xml version="1.0" encoding="iso-8859-1"?>
<!-- Generator: Adobe Illustrator 19.0.0, SVG Export Plug-In . SVG Version: 6.00 Build 0)  -->
<svg version="1.1" id="Capa_1" xmlns="http://www.w3.org/2000/svg" xmlns:xlink="http://www.w3.org/1999/xlink" x="0px" y="0px"
	 viewBox="0 0 59 59" style="enable-background:new 0 0 59 59;" xml:space="preserve">
<g>
	<g>
		<path d="M31,26c1.654,0,3-1.346,3-3s-1.346-3-3-3c-1.654,0-3,1.346-3,3S29.346,26,31,26z M31,22c0.551,0,1,0.449,1,1s-0.449,1-1,1
			s-1-0.449-1-1S30.449,22,31,22z"/>
		<path d="M33.414,37.59c-5.919-2.69-10.262-0.051-10.443,0.062c-0.469,0.293-0.611,0.91-0.318,1.378
			c0.294,0.469,0.911,0.612,1.378,0.318c0.036-0.022,3.601-2.189,8.557,0.062c0.134,0.061,0.274,0.09,0.413,0.09
			c0.38,0,0.743-0.218,0.911-0.586C34.139,38.412,33.917,37.819,33.414,37.59z"/>
		<path d="M47.703,21.29c-1.384-7.867-7.747-14.024-15.715-15.102c1.832-1.356,5.281-3.505,8.413-3.192
			c0.557,0.062,1.04-0.346,1.095-0.895c0.055-0.55-0.346-1.04-0.896-1.095c-3.357-0.332-6.816,1.514-9.003,3.004
			c0.492-1.013,1.023-1.887,1.459-2.177c0.459-0.306,0.583-0.927,0.277-1.387c-0.307-0.46-0.928-0.585-1.387-0.277
			c-1.156,0.771-2.184,2.902-2.809,4.441c-0.97-1.113-2.597-2.47-5.265-3.538c-0.514-0.205-1.095,0.045-1.3,0.557
			c-0.205,0.513,0.044,1.095,0.557,1.3c2.516,1.006,3.909,2.25,4.652,3.158C19.455,6.859,12.727,13.17,11.298,21.29
			C11.115,21.471,11,21.722,11,22v2.498V26v32c0,0.552,0.448,1,1,1h35c0.552,0,1-0.448,1-1V26v-1.502V22
			C48,21.722,47.886,21.471,47.703,21.29z M40,23h5.924C45.969,23.495,46,23.993,46,24.499v0.502h-6V23z M29.498,8.001
			c0.001,0,0.002,0,0.002,0c0.001,0,0.001,0,0.002,0c7.896,0.001,14.506,5.58,16.116,13h-6.231c-1.446-4.071-5.326-7-9.887-7
			s-8.441,2.929-9.887,7h-6.231C14.992,13.58,21.602,8.002,29.498,8.001z M29.5,16c4.687,0,8.5,3.813,8.5,8.5S34.187,33,29.5,33
			S21,29.187,21,24.5S24.813,16,29.5,16z M13,24.499c0-0.506,0.031-1.004,0.076-1.498H19v2h-6V24.499z M13,57V27h6.313
			c1.126,4.584,5.26,8,10.187,8s9.06-3.416,10.187-8H46v30H13z"/>
	</g>
</g>
<g>
</g>
<g>
</g>
<g>
</g>
<g>
</g>
<g>
</g>
<g>
</g>
<g>
</g>
<g>
</g>
<g>
</g>
<g>
</g>
<g>
</g>
<g>
</g>
<g>
</g>
<g>
</g>
<g>
</g>
</svg>
