<?xml version="1.0" encoding="iso-8859-1"?>
<!-- Generator: Adobe Illustrator 16.0.0, SVG Export Plug-In . SVG Version: 6.00 Build 0)  -->
<!DOCTYPE svg PUBLIC "-//W3C//DTD SVG 1.1//EN" "http://www.w3.org/Graphics/SVG/1.1/DTD/svg11.dtd">
<svg version="1.1" id="Capa_1" xmlns="http://www.w3.org/2000/svg" xmlns:xlink="http://www.w3.org/1999/xlink" x="0px" y="0px"
	 width="976.444px" height="976.444px" viewBox="0 0 976.444 976.444" style="enable-background:new 0 0 976.444 976.444;"
	 xml:space="preserve">
<g>
	<path d="M652.979,617.781c-5.627-21.521-22.299-29.189-36.025-29.189l0,0l0,0c-0.217,0-0.424,0.014-0.637,0.018
		c-0.332-0.009-0.662-0.018-0.99-0.018l0,0h-0.002c-6.172,0-11.453,1.382-16.113,2.6c-5.59,1.462-13.244,3.464-20.336,7.977
		c-14.588,9.282-20.959,25.342-16.627,41.911c5.297,20.258,23.613,34.403,44.541,34.403c0.217,0,0.432-0.018,0.646-0.021
		c0.328,0.007,0.654,0.021,0.982,0.021c3.928,0,7.85-0.505,11.66-1.501c11.9-3.11,21.877-10.671,28.09-21.285
		C654.381,642.08,656.092,629.681,652.979,617.781z M592.901,633.489c-2.242-8.575,6.953-11.031,15.527-13.273
		c3.008-0.786,5.539-1.441,7.654-1.592c2.998,0.239,5,1.992,6.244,6.746c2.242,8.574-2.893,17.345-11.467,19.587
		c-1.051,0.273-2.102,0.436-3.146,0.496C600.87,645.149,594.725,640.465,592.901,633.489z"/>
	<path d="M400.537,599.167c-7.092-4.514-14.747-6.514-20.336-7.977c-4.66-1.219-9.943-2.6-16.115-2.6
		c-0.328,0-0.658,0.009-0.989,0.018c-0.214-0.004-0.423-0.018-0.639-0.018c-13.726,0-30.397,7.668-36.024,29.189
		c-3.112,11.898-1.403,24.299,4.812,34.914c6.215,10.614,16.19,18.175,28.091,21.285c3.811,0.996,7.733,1.501,11.659,1.501
		c0.329,0,0.656-0.014,0.983-0.021c0.215,0.003,0.43,0.021,0.646,0.021c20.929,0,39.244-14.146,44.541-34.403
		C421.496,624.509,415.125,608.449,400.537,599.167z M368.553,644.957c-8.575-2.242-13.709-11.013-11.468-19.587
		c1.243-4.754,3.246-6.507,6.244-6.746c2.116,0.15,4.647,0.806,7.654,1.592c8.575,2.242,17.769,4.698,15.526,13.273
		c-1.823,6.976-7.969,11.659-14.812,11.964C370.654,645.393,369.603,645.231,368.553,644.957z"/>
	<path d="M782.959,803.608c-6.381-16.057-8.205-31.479-8.455-42.771c15.428,3.534,33.898,4.089,55.211,1.641
		c22.771-2.618,40.525-7.793,41.271-8.012l34.885-10.261l-31.973-17.319c-18.688-10.121-49.773-38.76-91.76-117.713
		c-17.072-32.104-30.469-62.45-37.637-79.459c4.688-2.823,9.016-5.738,12.967-8.744c9.459-7.197,16.924-15.043,22.186-23.317
		c6.393-10.055,9.633-20.735,9.633-31.748c0-45.894-53.512-72.747-98.402-87.195c-11.477-3.693-23.945-7.092-37.119-10.118
		c-0.277-6.93-0.42-21.824-0.514-31.491c-0.105-11.076-0.178-17.97-0.332-20.043c-1.258-17.031-4.281-34.108-8.984-50.758
		c-9.631-34.095-26.141-66.072-49.07-95.047c-30.795-38.911-73.359-72.847-126.515-100.865
		c-25.625-13.509-67.822-32.894-123.326-48.527c-33.23-9.359-55.772-13-56.719-13.151L233.498,0l91.395,153.541v214.851
		c-13.479,3.071-26.239,6.537-37.991,10.319c-28.012,9.015-50.413,19.824-66.585,32.13c-9.46,7.198-16.924,15.044-22.185,23.317
		c-6.393,10.054-9.634,20.734-9.634,31.748c0,27.306,18.944,47.869,43.745,63.094c-7.09,16.862-20.624,47.617-37.938,80.176
		c-41.986,78.953-73.073,107.592-91.759,117.713L70.57,744.206l34.886,10.261c0.744,0.219,18.5,5.394,41.27,8.012
		c21.31,2.449,39.778,1.895,55.202-1.639c-0.246,11.031-1.987,25.996-7.989,41.602c-16.259,42.272-54.967,69.49-115.048,80.898
		L21.92,894.156l55.07,18.165c1.55,0.512,38.201,12.413,87.257,12.412c0.46,0,0.924-0.001,1.385-0.003
		c59.05-0.271,110.729-18.009,150.744-51.521c6.833,15.718,13.13,37.266,7.303,52.508l-18.58,48.595l41.599-31.242
		c0.66-0.496,16.338-12.343,31.749-30.053c5.328-6.122,9.971-12.181,13.938-18.166c7.622,26.974,20.02,47.729,37.006,61.877
		c20.591,17.153,42.314,19.716,53.432,19.716c2.296,0,4.337-0.104,6.071-0.248c1.734,0.145,3.773,0.248,6.07,0.248
		c11.117,0,32.842-2.562,53.432-19.713c16.689-13.901,28.947-34.189,36.602-60.482c3.756,5.531,8.088,11.123,13.002,16.77
		c15.41,17.71,31.088,29.557,31.748,30.053l41.6,31.242l-18.58-48.595c-5.828-15.244,0.471-36.796,7.301-52.509
		c40.016,33.513,91.695,51.251,150.746,51.521c0.463,0.003,0.922,0.003,1.385,0.003c49.051,0,85.707-11.901,87.256-12.412
		l55.07-18.165l-56.971-10.816C838.045,872.041,799.491,845.216,782.959,803.608z M585.793,799.922
		c-18.082-9.703-37.406-16.399-57.574-20.016l18.369-57.4l45.113-18.123l-51.959-60.658l-11.393,9.758l-11.393,9.759l24.75,28.895
		l-19.395,7.791l-10.621,33.192c-7.08-7.105-21.596-6.818-25.151,5.977c-3.424,12.324,7.848,19.945,17.375,18.315l-6.207,19.396
		l-9.343,29.196l-8.943-28.896l-23.875-77.146l-19.476-7.824l24.75-28.895l-11.392-9.759l-11.393-9.758l-51.959,60.658l45.032,18.09
		l18.089,58.451c-26.401,5.112-46.907,13.646-57.425,18.643c-30.822-51.829-78.155-85.438-88.977-105.171
		c-14.902-27.176,19.271-130.967,19.271-130.967s62.744,17.579,166.82,18.359c104.074-0.78,166.818-18.359,166.818-18.359
		s34.174,103.791,19.271,130.967C664.135,714.174,616.612,747.89,585.793,799.922z M345.309,448.663
		c9.364,7.674,22.044,14.312,37.683,19.732c28.857,10.002,66.703,15.512,106.568,15.512c39.861,0,77.709-5.51,106.566-15.512
		c15.641-5.421,28.318-12.061,37.682-19.732c16.877-13.827,20.418-28.741,20.418-38.817v-8.248
		c63.787,15.754,103.062,40.134,103.062,64.308c0,20.469-27.775,41.146-76.207,56.733c-51.248,16.494-119.502,25.577-192.189,25.577
		c-72.688,0-140.94-9.083-192.188-25.577c-48.431-15.587-76.207-36.266-76.207-56.733c0-24.374,39.789-48.883,104.396-64.634v8.574
		C324.891,419.922,328.433,434.836,345.309,448.663z M356.891,356.485c1.112,0.264,2.357,0.562,3.715,0.887
		c12.854,3.079,36.059,8.639,61.462,11.683l0.144,76.692c-38.805-7.705-65.319-22.109-65.319-35.9L356.891,356.485L356.891,356.485z
		 M454.225,393.814v-23.241h70.667v76.482h-70.667v-21.241h40.667v-32H454.225z M622.225,409.846
		c0,13.793-26.521,28.199-65.336,35.903l-0.018-76.919c21.326-2.568,41.219-7.073,54.734-10.135c4.283-0.97,7.992-1.81,10.619-2.324
		V409.846L622.225,409.846z M489.559,337.722c-64.666,0-126.854-12.771-132.668-13.996V144.737L296.212,42.795
		c26.44,5.537,89.535,21.05,152.787,53.601c48.224,24.816,87.099,54.538,115.548,88.339c34.219,40.652,53.387,87.433,57.021,139.128
		C612.733,325.695,552.305,337.722,489.559,337.722z M354.414,894.968c-1.286-7.253-3.366-14.876-6.238-22.85
		c-6.339-17.603-14.407-30.666-14.748-31.213l-10.074-16.203l-13.368,13.613c-36.293,36.962-84.599,55.94-143.574,56.41
		c-7.795,0.069-15.283-0.22-22.335-0.729c12.891-6.123,24.468-13.339,34.663-21.619c19.729-16.023,34.263-35.931,43.199-59.165
		c15.104-39.269,8.771-74.422,8.493-75.899l-3.745-19.975l-17.984,9.466c-16.521,8.692-42.323,8.124-63.681,5.231
		c24.268-23.196,49.692-59.696,75.913-109.047c17.246-32.457,30.62-62.577,38.097-80.27c9.298,4.008,18.76,7.449,27.868,10.381
		c2.086,0.671,4.206,1.327,6.343,1.977c-1.705,5.272-9.4,29.559-15.645,56.985c-14.082,61.858-7.985,84.203-1.1,96.76
		c6.332,11.546,17.523,22.728,31.691,36.884c24.28,24.26,55.93,55.909,71.432,97.303l-0.097,0.006
		C380.607,860.345,368.002,879.688,354.414,894.968z M494.961,946.444c-3.779,0-6.07-0.455-6.07-0.455s-2.289,0.455-6.071,0.455
		c-15.127,0-54.135-7.295-66.057-80.229c-2.318-14.18-6.313-27.447-11.46-39.846c9.188-4.305,27.55-11.876,50.929-16.248
		c0.636-0.119,1.268-0.225,1.902-0.337l29.753,96.144l31.132-97.278c18.695,2.896,36.5,8.936,53.309,18.091
		c-1.93,4.678-3.697,9.479-5.27,14.404l-0.082-0.005c-0.006,0.098-0.008,0.194-0.012,0.292c-2.52,7.934-4.541,16.19-5.945,24.783
		C549.096,939.155,510.086,946.444,494.961,946.444z M810.946,894.731c-59.385-0.271-107.998-19.253-144.49-56.416l-13.367-13.612
		l-10.072,16.203c-0.342,0.547-8.41,13.61-14.75,31.213c-2.879,7.994-4.963,15.637-6.248,22.904
		c-12.682-14.239-24.502-32.041-25.133-48.509c14.984-43.123,47.748-75.868,72.711-100.811
		c14.168-14.156,25.357-25.338,31.689-36.884c6.885-12.557,12.984-34.9-1.098-96.76c-6.244-27.428-13.941-51.713-15.646-56.985
		c2.137-0.648,4.256-1.306,6.344-1.977c9.584-3.084,18.492-6.384,26.738-9.877c7.518,17.757,20.803,47.616,37.883,79.766
		c26.223,49.351,51.646,85.85,75.914,109.047c-21.357,2.893-47.162,3.462-63.682-5.231l-17.984-9.466l-3.744,19.975
		c-0.277,1.479-6.609,36.633,8.492,75.899c8.938,23.235,23.473,43.142,43.199,59.165c10.199,8.284,21.783,15.503,34.68,21.627
		C825.614,894.489,818.43,894.766,810.946,894.731z"/>
</g>
<g>
</g>
<g>
</g>
<g>
</g>
<g>
</g>
<g>
</g>
<g>
</g>
<g>
</g>
<g>
</g>
<g>
</g>
<g>
</g>
<g>
</g>
<g>
</g>
<g>
</g>
<g>
</g>
<g>
</g>
</svg>
