<?xml version="1.0" encoding="iso-8859-1"?>
<!-- Generator: Adobe Illustrator 16.0.0, SVG Export Plug-In . SVG Version: 6.00 Build 0)  -->
<!DOCTYPE svg PUBLIC "-//W3C//DTD SVG 1.1//EN" "http://www.w3.org/Graphics/SVG/1.1/DTD/svg11.dtd">
<svg version="1.1" id="Capa_1" xmlns="http://www.w3.org/2000/svg" xmlns:xlink="http://www.w3.org/1999/xlink" x="0px" y="0px"
	 width="27.916px" height="27.916px" viewBox="0 0 27.916 27.916" style="enable-background:new 0 0 27.916 27.916;"
	 xml:space="preserve">
<g>
	<g>
		<path d="M25.087,8.921c-0.293-0.622-1.034-0.888-1.659-0.601c-0.014,0.006-0.652,0.291-1.969,0.595V3c0-1.65-1.35-3-3-3H9.46
			c-1.65,0-3,1.35-3,3v5.915c-1.297-0.3-1.936-0.581-1.967-0.595C3.87,8.028,3.13,8.292,2.832,8.912
			c-0.298,0.623-0.034,1.369,0.589,1.667c0.135,0.064,3.375,1.573,10.539,1.573c7.163,0,10.403-1.509,10.538-1.573
			C25.118,10.283,25.379,9.543,25.087,8.921z M19.52,9.178c-1.597,0.347-3.467,0.523-5.562,0.523c-2.095,0-3.966-0.176-5.562-0.523
			c-0.539-0.117-0.882-0.65-0.765-1.188c0.118-0.54,0.646-0.883,1.19-0.765c1.001,0.218,2.704,0.477,5.136,0.477
			c2.432,0,4.134-0.259,5.135-0.477c0.545-0.119,1.072,0.225,1.19,0.765C20.4,8.528,20.059,9.061,19.52,9.178z"/>
		<polygon points="8.804,27.916 13.958,25.339 8.804,22.762 		"/>
		<polygon points="19.111,27.916 19.111,22.762 13.958,25.339 		"/>
		<path d="M19.814,20.664c-1.329-0.809-3.585-3.448-5.264-3.448c-0.324,0-0.497,0.165-0.594,0.429
			c-0.097-0.265-0.27-0.429-0.594-0.429c-1.679,0-3.935,2.64-5.264,3.448c-0.563,0.342-1.196-0.062-1.056-0.82
			c-0.956,1.434,0.607,2.564,2.139,2.172c0.098-0.025,4.264-1.459,4.774-2.537c0.511,1.08,4.676,2.512,4.773,2.537
			c1.53,0.393,3.095-0.738,2.139-2.172C21.012,20.602,20.378,21.006,19.814,20.664z"/>
	</g>
</g>
<g>
</g>
<g>
</g>
<g>
</g>
<g>
</g>
<g>
</g>
<g>
</g>
<g>
</g>
<g>
</g>
<g>
</g>
<g>
</g>
<g>
</g>
<g>
</g>
<g>
</g>
<g>
</g>
<g>
</g>
</svg>
